<?xml version="1.0" encoding="utf-8"?>
<!-- Generator: Adobe Illustrator 26.0.1, SVG Export Plug-In . SVG Version: 6.00 Build 0)  -->
<svg version="1.1" id="Layer_1" xmlns="http://www.w3.org/2000/svg" xmlns:xlink="http://www.w3.org/1999/xlink" x="0px" y="0px"
	 viewBox="0 0 700 700" style="enable-background:new 0 0 700 700;" xml:space="preserve">
<style type="text/css">
	.st0{fill:#CE91AD;}
</style>
<path class="st0" d="M508.4,123.4c-56.9-22.8-116.8-8.3-159.7,38.1c-42.9-45.9-102.4-60.8-159.2-38.1
	c-63,24.9-120.8,99.3-97.6,205.2c35,159.2,219.6,244.1,245,255.1c5.2,3.5,10.9,3.5,13.1,3.5s8.3,0,13.1-3.5
	c25.4-10.9,208.2-94.9,245.4-255.1C630.1,224.5,574.1,150.6,508.4,123.4L508.4,123.4z M578.9,322c-35,152.7-226.2,233.2-227.9,234.1
	l-0.9,0.4l-0.4-0.4c-1.8-0.9-194.2-80.5-227.9-233.6c-19.2-88.4,27.6-150.1,78.8-170.2c49.9-20.1,100.6-3.9,136.1,42.4l12.2,16.2
	l12.2-16.2c35.4-46.8,86.2-62.6,136.1-42.9C550.4,174.2,596.4,235.4,578.9,322L578.9,322z"/>
</svg>
