<?xml version="1.0" encoding="utf-8"?>
<!-- Generator: Adobe Illustrator 26.0.1, SVG Export Plug-In . SVG Version: 6.00 Build 0)  -->
<svg version="1.1" id="Layer_1" xmlns="http://www.w3.org/2000/svg" xmlns:xlink="http://www.w3.org/1999/xlink" x="0px" y="0px"
	 viewBox="0 0 700 700" style="enable-background:new 0 0 700 700;" xml:space="preserve">
<style type="text/css">
	.st0{fill:#CE91AD;}
</style>
<g>
	<path class="st0" d="M430.9,586v20.1c0,3.3,2.7,6,6,6c3.3,0,6-2.7,6-6V586c0-3.3-2.7-6-6-6C433.6,580,430.9,582.7,430.9,586z"/>
	<path class="st0" d="M556.4,586v20.1c0,3.3,2.7,6,6,6c3.3,0,6-2.7,6-6V586c0-3.3-2.7-6-6-6C559.1,580,556.4,582.7,556.4,586z"/>
	<path class="st0" d="M488.7,199.4c3.3,0,6-2.7,6-6c0-3.3-2.7-6-6-6h-54.1c-3.3,0-6,2.7-6,6c0,3.3,2.7,6,6,6H488.7z"/>
	<path class="st0" d="M385.1,199.4h19.8c3.3,0,6-2.7,6-6c0-3.3-2.7-6-6-6h-19.8c-3.3,0-6,2.7-6,6S381.8,199.4,385.1,199.4z"/>
	<path class="st0" d="M189.1,214.9l46.1-30.7h113.4c14.9,0,27-12.1,27-27.1l0-42.2c0-14.9-12.1-27.1-27-27.1H206.8
		c-14.9,0-27,12.1-27,27.1v96.3C181.3,215.9,185.9,217,189.1,214.9L189.1,214.9z M191.7,115c0-8.3,6.7-15.1,15-15.1h141.8
		c8.3,0,15,6.8,15,15.1v42.2c0,8.3-6.7,15.1-15,15.1H233.3c-1.2,0-2.3,0.3-3.3,1l-38.3,25.5L191.7,115z"/>
	<path class="st0" d="M405.6,157.2h99.6c8.3,0,15,6.8,15,15.1v83.8l-38.3-25.5c-1-0.7-2.1-1-3.3-1H363.4c-8.3,0-15-6.8-15-15.1
		v-12.3c0-3.3-2.7-6-6-6c-3.3,0-6,2.7-6,6v12.3c0,14.9,12.1,27.1,27,27.1h113.4l46.1,30.7c3.8,2.7,9.4-0.4,9.3-5l0-95
		c0-14.9-12.1-27.1-27-27.1h-99.6c-3.3,0-6,2.7-6,6C399.7,154.5,402.3,157.2,405.6,157.2L405.6,157.2z"/>
	<path class="st0" d="M283.3,136.1c0-3.3-2.7-6-6-6h-54.1c-3.3,0-6,2.7-6,6c0,3.3,2.7,6,6,6h54.1
		C280.6,142.1,283.3,139.4,283.3,136.1z"/>
	<path class="st0" d="M307.1,142.1h19.8c3.3,0,6-2.7,6-6c0-3.3-2.7-6-6-6h-19.8c-3.3,0-6,2.7-6,6
		C301.1,139.4,303.8,142.1,307.1,142.1z"/>
	<path class="st0" d="M432.4,316.1c-18.2,17.8-28.3,41.2-28.3,66.1l0,10.4c-9.3,8.1-14.5,19.5-14.5,32c0,13.2,6.1,25.5,16.3,33.4
		c-5.3,7.2-8.1,15.8-8.1,25c0,14.1,7.2,27.2,18.5,35c-17.8,15.1-29.2,37.7-29.2,62.9v25.2c0,3.3,2.7,6,6,6c3.3,0,6-2.7,6-6v-25.2
		c0-36.9,28.5-67.2,64.6-70.3c0.6,19.6,17.7,34.7,37.2,33.4c18.6,0,33.9-14.9,34.5-33.4c36.1,3,64.6,33.4,64.6,70.3v25.2
		c0,3.3,2.7,6,6,6c3.3,0,6-2.7,6-6v-25.2c0-25.5-11.6-48.3-29.9-63.5c10.9-7.8,17.6-20.5,17.6-34.4c0-9.1-2.8-17.8-8.1-25
		c10.2-8,16.3-20.2,16.3-33.4c0-12.4-5.3-23.9-14.5-32v-10.2c1.1-49.9-44.8-94.6-94.6-93.6C473.9,288.8,450.4,298.5,432.4,316.1
		L432.4,316.1z M499.5,481.4c-28.2,0-51.1-22.9-51.1-51.1v-30.7c14.6-5.2,26.6-15.7,34-29.5c18,18.3,42.4,29,68.2,29.9v30.3
		C550.6,458.5,527.7,481.4,499.5,481.4L499.5,481.4z M523.4,508.1c0,13.2-10.7,23.9-23.9,23.9c-13.2,0-23.9-10.7-23.9-23.9v-19.3
		c14.6,6.1,33.2,6.1,47.8,0V508.1z M581.3,382.4v13.1c0,1.9,0.9,3.6,2.4,4.8c7.7,5.8,12.2,14.7,12.2,24.3c0,11-5.9,21-15.4,26.4
		c-4.1,1.3-5.4,7-2.2,10c6.1,5.8,9.4,13.6,9.4,22c0,11.4-6.3,21.7-16.3,26.9c-10.7-6.4-22.9-10.4-36-11.3v-16.2
		c16.4-11.3,27.2-30.1,27.2-51.5V394c0-3.3-2.6-5.9-5.9-6l-3.8,0c-25.9-0.3-50.3-11.9-66.9-31.9c-2.5-3.2-7.8-2.7-9.8,0.8l-5.4,9.3
		c-6.6,11.4-17.3,19.6-30,23.1c-2.6,0.7-4.4,3.1-4.4,5.8v35.8c0,21.4,10.8,40.2,27.2,51.5v16.2c-13.4,1-25.9,5.1-36.8,11.7
		c-10.4-5-17.1-15.7-17.1-27.4c0-8.4,3.3-16.2,9.4-22c3.1-2.8,2-8.3-1.9-9.8c-9.7-5.4-15.6-15.5-15.6-26.6c0-9.7,4.4-18.5,12.2-24.3
		c1.5-1.1,2.4-2.9,2.4-4.8l0-13.2c0.1-44.2,38-81.5,82.6-81.5C543.4,300.8,581.3,338.1,581.3,382.4L581.3,382.4z"/>
	<path class="st0" d="M94.1,612.1c3.3,0,6-2.7,6-6v-25.2c0-36.9,28.5-67.3,64.7-70.3c1.3,18.6,16.8,33.4,35.8,33.4
		s34.5-14.8,35.8-33.4c36.2,3,64.7,33.4,64.7,70.3v25.2c0,3.3,2.7,6,6,6c3.3,0,6-2.7,6-6v-25.2c0-43.5-33.8-79.2-76.5-82.3v-16.5
		c16.4-11.3,27.1-30.2,27.2-51.6c17.7-2.9,31.3-18.4,31.3-37v-21.1c1.4-24.1-10.6-54.5-40.2-62.1c-7.9-27.8-53-25.6-76.1-23.1
		c-40.6,2.1-72.5,35.8-72.5,76.7v29.6c0,18.6,13.6,34.1,31.4,37c0.1,21.3,10.9,40.2,27.2,51.5v16.5c-42.7,3.1-76.5,38.8-76.5,82.3
		v25.2C88.1,609.4,90.8,612.1,94.1,612.1L94.1,612.1z M118,393.5v-29.6c0-34.5,26.9-63,61.1-64.8c12.5-0.5,59.3-7.8,64.5,16.9
		c0.3,2.5,2.2,4.5,4.6,5c37.2,8.2,34.8,49,34.6,50.7c0,0.2,0,0.3,0,0.5v21.3c0,12-8.3,22.1-19.5,24.8v-40.4c0-3.3-2.7-6-6-6h-0.3
		c-12.4-2.6-23.1-9.4-29.4-18.5l-5.1-7.4c-2-3.1-6.8-3.5-9.3-0.8c-15.7,15.9-38.9,25.1-63.5,25.4l-6.4,0c-3.2-0.1-6.1,2.8-6,6v41.8
		C126.3,415.6,118,405.5,118,393.5L118,393.5z M149.4,430.3v-47.7c25.4-0.1,49.7-8.9,67.4-24.1c7.6,11.8,19.9,20.5,34.7,24.4
		l0.1,47.4c0,28.2-22.9,51.1-51.1,51.1C172.3,481.4,149.4,458.4,149.4,430.3L149.4,430.3z M200.5,493.3c8.5,0,16.5-1.7,23.9-4.7
		v19.5c0,13.2-10.7,23.9-23.9,23.9s-23.9-10.7-23.9-23.9v-19.5C184,491.7,192.1,493.3,200.5,493.3z"/>
	<path class="st0" d="M132,586v20.1c0,3.3,2.7,6,6,6c3.3,0,6-2.7,6-6V586c0-3.3-2.7-6-6-6C134.6,580,132,582.7,132,586z"/>
	<path class="st0" d="M257.5,586v20.1c0,3.3,2.7,6,6,6c3.3,0,6-2.7,6-6V586c0-3.3-2.7-6-6-6C260.2,580,257.5,582.7,257.5,586z"/>
</g>
</svg>
