<?xml version="1.0" encoding="utf-8"?>
<!-- Generator: Adobe Illustrator 26.0.1, SVG Export Plug-In . SVG Version: 6.00 Build 0)  -->
<svg version="1.1" id="Layer_1" xmlns="http://www.w3.org/2000/svg" xmlns:xlink="http://www.w3.org/1999/xlink" x="0px" y="0px"
	 viewBox="0 0 700 700" style="enable-background:new 0 0 700 700;" xml:space="preserve">
<style type="text/css">
	.st0{fill:#CE91AD;}
</style>
<g>
	<path class="st0" d="M530.7,630H169.3c-17.8,0-32.3-14.5-32.3-32.3V102.3c0-17.8,14.5-32.3,32.3-32.3h361.4
		c17.8,0,32.3,14.5,32.3,32.3v495.4C563,615.5,548.5,630,530.7,630z M169.3,86.7c-8.6,0-15.6,7-15.6,15.6v495.4
		c0,8.6,7,15.6,15.6,15.6h361.4c8.6,0,15.6-7,15.6-15.6V102.3c0-8.6-7-15.6-15.6-15.6H169.3z"/>
	<path class="st0" d="M443.7,327.4V208.3c0.5-36.1-9.7-63.2-30.4-80.6c-32-26.9-77.4-20.5-84.1-19.4c-15.7,0.4-28.7,11.4-32.2,26.2
		c-9.5,1.6-17.5,5.9-24,12.8c-17.3,18.5-16.7,49.5-16.6,52.6v127.5c-13.7,16.8-21.2,37.8-21.2,59.7v52.8c0,4.6,3.8,8.4,8.4,8.4
		s8.4-3.8,8.4-8.4l0-52.8c0-37.1,26.6-68.9,62-76.1v1.3c0,19.9,16.2,36.1,36.1,36.1s36.1-16.2,36.1-36.1V311
		c35.4,7.1,62,38.9,62,76.1v52.8c0,4.6,3.8,8.4,8.4,8.4s8.4-3.8,8.4-8.4v-52.8C464.9,365.2,457.4,344.2,443.7,327.4L443.7,327.4z
		 M369.3,312.3c0,10.7-8.7,19.3-19.3,19.3c-10.7,0-19.3-8.7-19.3-19.3v-26.4c6.1,2.1,12.6,3.3,19.3,3.3c6.8,0,13.2-1.2,19.3-3.3
		L369.3,312.3L369.3,312.3z M350,272.5c-23.5,0-42.7-19.6-42.7-43.7l0-23.2h13.1c24.5,0.2,50.6-9.5,66.2-27.4
		c2.2,1.2,4.8,3.4,5.9,7.3v43.3C392.7,252.8,373.5,272.5,350,272.5L350,272.5z M386.1,294v-17.3c14.2-11.1,23.3-28.5,23.3-48v-44.4
		c-1.8-15.9-17.2-23.7-24.7-24.3c-3.1-0.4-6.1,1-7.8,3.5c-11.8,16.5-35.4,25.4-56.4,25.2H299c-4.5-0.1-8.5,3.9-8.4,8.4l0,31.6
		c0,19.5,9.2,36.9,23.3,48V294c-14.9,2.4-28.8,8.4-40.8,17.4V199.7c0-0.1,0-0.2,0-0.3c0-0.3-0.9-26.8,12.1-40.7
		c5-5.3,11.3-8,19.4-8.2c4.5-0.1,8.2-3.8,8.2-8.4c0-9.4,7.7-17.1,17.1-17.1c3-0.2,42.9-8.2,72.6,15.6c16.6,14,24.8,36.8,24.4,67.6
		v0.1v103.1C414.9,302.4,400.9,296.4,386.1,294L386.1,294z"/>
	<path class="st0" d="M242.4,591.9c-2,0-3.9-0.7-5.5-2.1c-15.8-13.8-36.9-29-44.5-48.7c-8.1-18.5,2.1-41.7,21.3-48.2
		c12.6-4.6,22.3-0.9,28.7,4.5c6.4-5.4,16.1-9.1,28.7-4.5c19.2,6.5,29.3,29.7,21.3,48.2c-7.6,19.7-28.7,34.9-44.5,48.7
		C246.3,591.2,244.3,591.9,242.4,591.9L242.4,591.9z M219.4,508.7c-10.6,3.6-16,16.4-11.3,26.4c4.9,13.2,21.7,26.7,34.3,37.4
		c12.7-10.7,29.4-24.1,34.3-37.4c4.6-10.1-0.8-22.9-11.3-26.4c-9.8-3.6-14.4,3.4-15.6,5.6c-2.8,6.1-11.8,5.8-14.9-0.1
		C230.2,505.2,221.3,508,219.4,508.7L219.4,508.7z"/>
	<path class="st0" d="M499.8,521.7H349.9c-4.6,0-8.4-3.8-8.4-8.4s3.8-8.4,8.4-8.4h149.9c4.6,0,8.4,3.8,8.4,8.4
		S504.5,521.7,499.8,521.7L499.8,521.7z"/>
	<path class="st0" d="M417.3,577.9h-67.4c-4.6,0-8.4-3.8-8.4-8.4s3.8-8.4,8.4-8.4h67.4c4.6,0,8.4,3.8,8.4,8.4
		S421.9,577.9,417.3,577.9z"/>
	<path class="st0" d="M472.4,568.7c0,5.9-4.8,10.7-10.7,10.7c-5.9,0-10.8-4.8-10.8-10.7c0-5.9,4.8-10.8,10.8-10.8
		C467.5,557.9,472.4,562.8,472.4,568.7"/>
</g>
</svg>
