<?xml version="1.0" encoding="utf-8"?>
<!-- Generator: Adobe Illustrator 26.0.1, SVG Export Plug-In . SVG Version: 6.00 Build 0)  -->
<svg version="1.1" id="Layer_1" xmlns="http://www.w3.org/2000/svg" xmlns:xlink="http://www.w3.org/1999/xlink" x="0px" y="0px"
	 viewBox="0 0 700 700" style="enable-background:new 0 0 700 700;" xml:space="preserve">
<style type="text/css">
	.st0{fill:#CE91AD;stroke:#CE91AD;stroke-width:3;stroke-miterlimit:10;}
</style>
<g>
	<path class="st0" d="M468.7,243.9H246.6c-4.6,0-8.4-3.8-8.4-8.4v-85.3c0-4.6,3.8-8.4,8.4-8.4h222.1c4.6,0,8.4,3.8,8.4,8.4v85.3
		C477.1,240.1,473.3,243.9,468.7,243.9L468.7,243.9z M255,227.1h205.4l0-68.5H255L255,227.1z"/>
	<path class="st0" d="M420.9,315.6H246.6c-4.6,0-8.4-3.8-8.4-8.4s3.8-8.4,8.4-8.4h174.2c4.6,0,8.4,3.8,8.4,8.4
		C429.2,311.8,425.5,315.6,420.9,315.6z"/>
	<path class="st0" d="M313.6,387.3h-67c-4.6,0-8.4-3.8-8.4-8.4s3.8-8.4,8.4-8.4h67c4.6,0,8.4,3.8,8.4,8.4S318.2,387.3,313.6,387.3z"
		/>
	<path class="st0" d="M293.1,459h-46.5c-4.6,0-8.4-3.8-8.4-8.4s3.8-8.4,8.4-8.4h46.5c4.6,0,8.4,3.8,8.4,8.4S297.8,459,293.1,459z"/>
	<path class="st0" d="M475.9,307.2c0,5.9-4.8,10.8-10.8,10.8c-5.9,0-10.8-4.8-10.8-10.8c0-5.9,4.8-10.8,10.8-10.8
		C471.1,296.4,475.9,301.2,475.9,307.2"/>
	<path class="st0" d="M534.3,70H181.1c-4.6,0-8.4,3.8-8.4,8.4v162.8l-94.3,0c-4.6,0-8.4,3.8-8.4,8.4v221.3
		c0,32.9,26.8,59.7,59.7,59.7h186.8c4.6,0,8.4-3.8,8.4-8.4s-3.8-8.4-8.4-8.4l-145.4,0c11.3-10.9,18.3-26.1,18.3-43l0-384h336.5V331
		c0,4.6,3.8,8.4,8.4,8.4s8.4-3.8,8.4-8.4V78.4C542.7,73.8,538.9,70,534.3,70L534.3,70z M129.7,513.8c-23.7,0-43-19.3-43-43V257.9
		h85.9v212.9C172.7,494.5,153.4,513.8,129.7,513.8L129.7,513.8z"/>
	<path class="st0" d="M609.8,548.3L544,494.2c7.6-15.1,11.9-32.1,11.9-50.1c0-61.7-50.1-111.9-111.7-111.9
		c-61.6,0-111.7,50.2-111.7,111.9c0,61.7,50.1,111.9,111.7,111.9c18,0,35-4.3,50.1-11.9l54,65.9c15.8,21.6,50.3,28.2,69.3,7.8
		C626.2,609.3,644.1,578.9,609.8,548.3L609.8,548.3z M349.2,444.1c0-52.4,42.6-95.1,95-95.1s95,42.7,95,95.1s-42.6,95.1-95,95.1
		S349.2,496.5,349.2,444.1L349.2,444.1z M605.8,605.7c-14.7,14.2-33.7,7.1-44.6-6.3l-52.6-64.1C519,528,528,519,535.3,508.7l64,52.6
		C612.6,572.2,619.7,590.9,605.8,605.7L605.8,605.7z"/>
</g>
</svg>
