<?xml version="1.0" encoding="utf-8"?>
<!-- Generator: Adobe Illustrator 26.0.1, SVG Export Plug-In . SVG Version: 6.00 Build 0)  -->
<svg version="1.1" id="Layer_1" xmlns="http://www.w3.org/2000/svg" xmlns:xlink="http://www.w3.org/1999/xlink" x="0px" y="0px"
	 viewBox="0 0 700 700" style="enable-background:new 0 0 700 700;" xml:space="preserve">
<style type="text/css">
	.st0{fill:#CE91AD;stroke:#CE91AD;stroke-width:3;stroke-miterlimit:10;}
</style>
<g>
	<path class="st0" d="M615.3,173.6c0,4.3-3.5,7.8-7.8,7.8c-4.3,0-7.8-3.5-7.8-7.8c0-4.3,3.5-7.8,7.8-7.8
		C611.8,165.8,615.3,169.3,615.3,173.6"/>
	<path class="st0" d="M613.5,207.7c0-3.3-2.7-6-6-6h-42.6c-10.3-0.6-17,12.9-10.6,20.8c1.8,2.6,2.8,5.7,2.8,8.9
		c0.2,9-8.2,16.8-17.3,15.6c-7.1-0.8-12.8-6.5-13.7-13.6c-0.4-3.7,0.3-7.2,2.3-10.3c5.6-8.3-0.4-21.9-11-21.4h-34.5v-34.9
		c-0.2-1.2,2.2-1.5,2.9-0.9c5.4,3.5,11.7,4.9,18.1,4.1c12.5-1.5,22.6-11.8,23.9-24.4c2.1-15.9-11.4-31-27.3-30.7
		c-5.7,0-11.1,1.7-15.8,5c-0.6,0.6-1.8,0.2-1.8-0.8l0-37h118.6V145c0,3.3,2.7,6,6,6c3.3,0,6-2.7,6-6l0-68.9c0-3.3-2.7-6-6-6H476.9
		c-3.3,0-6,2.7-6,6V119c-0.6,10.3,12.8,17.1,20.8,10.6c2.6-1.8,5.6-2.8,8.8-2.8c9.1-0.2,16.6,8.4,15.4,17.4
		c-0.8,7.1-6.4,12.9-13.5,13.8c-3.6,0.5-7.1-0.3-10.2-2.3c-8.3-5.7-21.9,0.5-21.3,11v34.7h-34.5c-1.2,0.1-1.4-2.3-0.8-3.1
		c3.4-5.4,4.8-11.7,4-18.1c-1.5-12.6-11.7-22.7-24.2-24.1c-15.9-2.1-30.9,11.5-30.5,27.5c0,5.7,1.7,11.2,5,15.8
		c0.7,0.7,0.2,2-0.7,1.9h-36.7l0-119.6h88.7c3.3,0,6-2.7,6-6c0-3.3-2.7-6-6-6h-94.7c-3.3,0-6,2.7-6,6v131.5c0,3.3,2.7,6,6,6H389
		c10.2,0.6,17.1-12.9,10.6-20.8c-1.8-2.6-2.8-5.7-2.8-8.9c-0.2-9,8.2-16.8,17.3-15.6c7.1,0.8,12.8,6.5,13.7,13.6
		c0.4,3.7-0.3,7.2-2.3,10.3c-5.6,8.3,0.4,21.9,11,21.4h34.4v35c0.2,1.2-2.2,1.5-2.9,0.9c-5.4-3.5-11.7-4.9-18.1-4.1
		c-12.5,1.5-22.6,11.8-23.9,24.4c-2.1,15.9,11.4,31,27.3,30.7c5.7,0,11.1-1.7,15.8-5c0.6-0.6,1.8-0.2,1.8,0.8l0,43c0,3.3,2.7,6,6,6
		h130.6c3.3,0,6-2.7,6-6L613.5,207.7L613.5,207.7z M601.5,333.2H482.9v-36.9c0.6-10.3-12.8-17.1-20.8-10.6c-2.6,1.8-5.6,2.8-8.8,2.8
		c-9.1,0.2-16.6-8.4-15.4-17.4c0.8-7.1,6.4-12.9,13.5-13.8c3.6-0.4,7.1,0.3,10.2,2.3c8.3,5.7,21.9-0.5,21.3-11v-34.8h34.6
		c1.2-0.1,1.4,2.3,0.8,3.1c-3.4,5.4-4.8,11.7-4,18.1c1.5,12.6,11.7,22.7,24.2,24c15.9,2.1,30.9-11.5,30.5-27.5
		c0-5.7-1.7-11.2-5-15.8c-0.7-0.7-0.2-2,0.7-1.9h36.7V333.2z"/>
	<path class="st0" d="M156.5,237.4l8.9-12.3c6.1,0.9,12.4,0.9,18.5,0l8.9,12.3c3.3,4.6,14.4,11.7,25,4l19.2-14c8-5.8,9.8-17,4-25
		l-6.8-9.3c-1.9-2.7-5.7-3.3-8.4-1.3c-2.7,1.9-3.3,5.7-1.3,8.4l6.8,9.3c1.9,2.6,1.3,6.3-1.3,8.3l-19.2,14c-2.5,1.9-6.4,1.3-8.3-1.3
		l-11.1-15.3c-1.4-1.9-3.8-2.8-6.1-2.3c-7,1.5-14.3,1.5-21.3,0c-2.3-0.5-4.7,0.4-6.1,2.3l-11.1,15.3c-1.8,2.6-5.7,3.2-8.3,1.3
		l-19.2-14c-2.6-1.9-3.2-5.6-1.3-8.3l11.1-15.3c1.4-1.9,1.5-4.4,0.3-6.5c-3.6-6.3-5.8-13.1-6.6-20.2c-0.2-2.3-1.9-4.3-4.1-5.1
		l-18-5.9c-3.1-1-4.8-4.4-3.8-7.5l7.4-22.6c1-3.1,4.3-4.8,7.4-3.8l18,5.9c2.2,0.7,4.7,0.1,6.3-1.7c4.8-5.3,10.6-9.5,17.2-12.5
		c2.1-1,3.5-3.1,3.5-5.5l0-18.9c0-3.3,2.7-5.9,5.9-5.9h23.8c3.3,0,5.9,2.7,5.9,5.9v18.9c0,2.4,1.4,4.5,3.5,5.5
		c6.6,3,12.4,7.2,17.2,12.5c1.6,1.7,4,2.4,6.3,1.7l18-5.9c3.1-1,6.4,0.7,7.4,3.8l7.4,22.6c1,3.1-0.7,6.4-3.8,7.5l-10.1,3.3
		c-3.1,1-4.9,4.4-3.8,7.5c1,3.1,4.4,4.9,7.5,3.8l10.1-3.3c9.4-3,14.5-13.2,11.5-22.5l-7.4-22.6c-3-9.4-13.2-14.5-22.5-11.5
		l-14.5,4.7c-4.4-4.3-9.4-8-14.9-10.8l0-15.2c0-9.9-8-17.9-17.9-17.9h-23.8c-9.9,0-17.9,8-17.9,17.9l0,15.2
		c-5.5,2.9-10.5,6.5-14.9,10.8l-14.5-4.7c-9.4-3-19.5,2.1-22.5,11.5l-7.4,22.6c-3,9.4,2.1,19.5,11.5,22.5l14.4,4.7
		c1,6.1,2.9,12,5.7,17.6l-8.9,12.3c-5.8,8-4,19.2,4,25l19.3,14C139.2,247.2,151,245.3,156.5,237.4L156.5,237.4z"/>
	<path class="st0" d="M142.1,161.8c0,18,14.6,32.6,32.6,32.6s32.6-14.6,32.6-32.6s-14.6-32.6-32.6-32.6S142.1,143.8,142.1,161.8z
		 M195.3,161.8c0,11.4-9.2,20.6-20.6,20.6c-11.4,0-20.6-9.2-20.6-20.6c0-11.4,9.2-20.6,20.6-20.6C186,141.1,195.3,150.4,195.3,161.8
		z"/>
	<path class="st0" d="M169.2,510.1c0,4.3-3.5,7.8-7.8,7.8c-4.3,0-7.8-3.5-7.8-7.8c0-4.3,3.5-7.8,7.8-7.8
		C165.7,502.4,169.2,505.8,169.2,510.1"/>
	<path class="st0" d="M380.1,273.1l-40.6,0c-1.2,0.1-1.4-2.3-0.8-3.1c3.4-5.4,4.8-11.7,4-18.1c-1.5-12.6-11.7-22.7-24.2-24.1
		c-15.9-2.1-30.9,11.5-30.5,27.5c0,5.7,1.7,11.2,5,15.8c0.7,0.7,0.2,2-0.7,1.9h-30.7c-9.9,0-17.9,8.1-17.9,17.9v24.4
		c-6.4,2.6-12,6.8-16.4,12.2L168.7,399c-9.8,12-15.1,27.2-14.8,42.8l0.5,30.6c0.1,3.3,2.7,5.9,6,5.9h0.1c3.3-0.1,5.9-2.8,5.9-6.1
		l-0.5-30.6c-0.2-12.7,4.1-25.2,12.1-35l58.3-71.4c2.1-2.5,4.5-4.6,7.2-6.3v69.8c0,8.3,5.7,15.3,13.4,17.4L246,442.3
		c-1.3,3.1,0.2,6.6,3.2,7.8c3,1.3,6.6-0.2,7.8-3.2l18.9-45.6c3.2-8.3,13.6-12.5,21.7-8.8c8.1,3.5,12,13.1,8.7,21.3
		c-8.6,21-16.5,42-21.8,66.4c-6,36.1-26,58.2-37.4,68.2c-6.9,5.7-12.4,14.2-16.9,22.1l-80-34.2c-8.8-4-20,0.5-23.6,9.5l-8.8,21
		c-3.8,9.1,0.4,19.6,9.5,23.5l89.4,38.3c8.8,4,20-0.5,23.6-9.5l8.8-21c3.6-8.5,0.1-18.3-7.8-22.6c3.7-6.4,8.2-13.2,13.8-17.9
		c12.6-11,34.8-35.5,41.4-75.2c5.2-23.3,12.7-43.6,21.1-63.8c5.8-14.2-0.9-30.7-15-36.8c-14-6.4-31.8,0.8-37.4,15.2l-3.3,7.9h-0.2
		c-3.3,0-6-2.7-6-6V291c0-3.3,2.7-6,6-6h30.6c10.3,0.6,17.1-12.9,10.6-20.8c-1.8-2.6-2.8-5.7-2.8-8.9c-0.2-9,8.2-16.8,17.3-15.6
		c7.1,0.8,12.8,6.5,13.7,13.6c0.4,3.7-0.3,7.2-2.3,10.3c-5.6,8.3,0.4,21.9,11,21.4l34.5,0v34.9c0.2,1.2-2.2,1.5-2.9,0.9
		c-5.4-3.5-11.7-4.9-18.1-4.1c-12.5,1.5-22.6,11.8-23.9,24.4c-2.1,15.9,11.4,31,27.3,30.7c5.7,0,11.1-1.7,15.8-5
		c0.6-0.6,1.8-0.2,1.8,0.8v37h-25.5c-3.3,0-6,2.7-6,6s2.7,6,6,6h31.4c3.3,0,6-2.7,6-6v-42.9c0.6-10.3-12.8-17.1-20.8-10.6
		c-2.6,1.8-5.6,2.8-8.8,2.8c-9.1,0.2-16.6-8.4-15.4-17.4c0.8-7.1,6.4-12.9,13.5-13.8c3.6-0.4,7.1,0.3,10.2,2.3
		c8.3,5.7,21.9-0.4,21.3-11v-40.8C386.1,275.8,383.4,273.1,380.1,273.1L380.1,273.1z M238,593.3l-8.8,21c-1.2,3-4.9,4.5-7.9,3.2
		L132,579.3c-3-1.3-4.4-4.8-3.2-7.8l8.8-21c1.2-3,4.9-4.5,7.9-3.2l89.4,38.3C237.9,586.8,239.3,590.3,238,593.3L238,593.3z"/>
	<path class="st0" d="M484.2,432.9c-1.6-2.9-5.3-3.9-8.1-2.3c-2.9,1.6-3.9,5.3-2.3,8.1l15.2,27.2c1.6,2.9,5.3,3.9,8.1,2.3
		c2.9-1.6,3.9-5.3,2.3-8.1L484.2,432.9z"/>
	<path class="st0" d="M503,413.3l26.6,15.6c2.8,1.7,6.5,0.7,8.2-2.1c1.7-2.9,0.7-6.5-2.1-8.2L509.1,403c-2.9-1.7-6.5-0.7-8.2,2.1
		C499.2,408,500.2,411.6,503,413.3L503,413.3z"/>
	<path class="st0" d="M442,483.6c3.3,0,6-2.7,6-5.9l0.2-31.5c0-3.3-2.6-6-5.9-6h0c-3.3,0-6,2.7-6,5.9l-0.2,31.5
		C436,480.9,438.6,483.6,442,483.6L442,483.6z"/>
</g>
</svg>
