<?xml version="1.0" encoding="utf-8"?>
<!-- Generator: Adobe Illustrator 26.0.1, SVG Export Plug-In . SVG Version: 6.00 Build 0)  -->
<svg version="1.1" id="Layer_1" xmlns="http://www.w3.org/2000/svg" xmlns:xlink="http://www.w3.org/1999/xlink" x="0px" y="0px"
	 viewBox="0 0 700 700" style="enable-background:new 0 0 700 700;" xml:space="preserve">
<style type="text/css">
	.st0{fill:#CE91AD;}
</style>
<g>
	<path class="st0" d="M439.7,545.8h-17.5v18.1l-265.3-0.2V137.2h263.4V164h17.5v-26.8h26.8v-17.5h-26.8V93h-17.5v26.7H156.9V93
		h-17.5v26.7h-30v17.5h30v426.6l-30-0.1v17.5l30,0.1V607h17.5v-25.7l265.3,0.2V607h17.5v-25.6l24.9,0.1V564l-24.9-0.1V545.8z"/>
	<path class="st0" d="M420.3,181.7h17.5v26.6h-17.5V181.7z"/>
	<path class="st0" d="M436.6,223c-29-1.2-57.3,9.5-78.2,29.6c-21,20.1-32.8,47.9-32.8,76.9c0,19.1,5.2,37.8,14.8,54.2
		c9.7,16.4,23.6,30,40.2,39.3V441c0,10,4,19.7,11.1,26.8c7.1,7.1,16.7,11.1,26.7,11.1h27.1c10,0,19.6-4,26.7-11.1
		c7.1-7.1,11.1-16.7,11.1-26.8v-17.9c17.2-9.4,31.4-23.4,41.2-40.4c9.8-17,14.7-36.3,14.2-55.9c-1-26.9-12.1-52.5-31-71.7
		C488.9,235.9,463.5,224.4,436.6,223L436.6,223z M471.6,409.9c-3,1.4-5,4.5-5,7.9v23.3c0,5.4-2.1,10.6-5.9,14.4c-3.8,3.8-9,6-14.4,6
		h-4.8v-96.2l10.7-3.7v0c3.5,7.5,10.3,13,18.5,14.7c8.1,1.7,16.6-0.6,22.8-6.1c6.2-5.5,9.4-13.7,8.7-21.9
		c-0.7-8.3-5.4-15.7-12.5-20.1c-7.1-4.3-15.8-5.1-23.5-1.9c-7.7,3.1-13.5,9.7-15.6,17.7l-17.5,6.1l-17.5-6.1
		c-2.2-7.8-7.9-14.2-15.5-17.2c-7.6-3-16.1-2.2-23,2.1c-6.9,4.3-11.4,11.6-12.1,19.7c-0.7,8.1,2.4,16.1,8.5,21.5
		c6.1,5.4,14.3,7.7,22.3,6.1c8-1.6,14.7-6.9,18.2-14.2l10.7,3.7v96.2h-4.8c-5.7,0.4-11.4-1.6-15.5-5.6s-6.4-9.5-6.3-15.3v-23.3
		c0-3.3-1.9-6.4-4.9-7.9c-15.1-7.3-27.8-18.7-36.8-32.9c-8.9-14.2-13.7-30.6-13.7-47.4c0-23.7,9.5-46.4,26.3-63.1
		c16.8-16.7,39.6-26,63.3-25.9h3.7c22.5,1.2,43.8,10.8,59.6,26.8c15.8,16.1,25.1,37.4,26,60c0.4,17.2-4.1,34.1-13,48.7
		c-8.9,14.6-21.9,26.4-37.4,33.9L471.6,409.9z M467.1,350.9c0-3.5,2.1-6.7,5.4-8.1c3.3-1.4,7-0.6,9.5,1.9c2.5,2.5,3.2,6.3,1.9,9.5
		c-1.4,3.3-4.5,5.4-8.1,5.4c-2.4,0.1-4.8-0.8-6.5-2.4c-1.7-1.7-2.7-4-2.7-6.4L467.1,350.9z M398.5,350.9L398.5,350.9
		c0,3.3-2,6.3-5,7.6c-3.1,1.3-6.6,0.7-9-1.6c-2.4-2.3-3.2-5.8-2.1-8.9c1.2-3.1,4-5.2,7.4-5.4c2.2,0,4.3,0.8,5.9,2.4
		c1.6,1.5,2.5,3.6,2.5,5.9L398.5,350.9z"/>
	<path class="st0" d="M563.9,323.2h26.8v17.5h-26.8V323.2z"/>
	<path class="st0" d="M269.2,323.2H296v17.5h-26.8V323.2z"/>
	<path class="st0" d="M307.5,219.9l13.6-11l16.9,20.8l-13.6,11L307.5,219.9z"/>
	<path class="st0" d="M513.4,424.5l13.6-11l16.9,20.8l-13.6,11L513.4,424.5z"/>
	<path class="st0" d="M292.1,411.1l24-12l7.8,15.7l-24,12L292.1,411.1z"/>
	<path class="st0" d="M529.2,249l23.9-12l7.8,15.7l-23.9,12L529.2,249z"/>
	<path class="st0" d="M462.6,485.5h-55.7c-4.8,0-8.8,3.9-8.8,8.8v6.2c0,7.4,3,14.5,8.2,19.8c5.3,5.2,12.4,8.2,19.8,8.1h17.5
		c7.4,0,14.5-2.9,19.8-8.2c5.2-5.2,8.2-12.3,8.2-19.7v-6.2c0-2.4-1-4.6-2.7-6.3C467.3,486.3,465,485.4,462.6,485.5L462.6,485.5z
		 M443.4,510.8h-17.5c-4.8,0-9-3.2-10.2-7.9h37.7c-1.3,4.4-5.4,7.4-10,7.4L443.4,510.8z"/>
	<path class="st0" d="M216.6,165c-11.8-0.1-23.2,4.1-32.1,11.8c-8.8,7.4-13.8,18.2-13.9,29.7v275c0,1.1,0.2,2.1,0.6,3.1v0.7v0.6
		l37.4,65.2c1.6,2.7,4.5,4.4,7.6,4.4c3.1,0,6-1.7,7.6-4.4l38.1-65.6v-1.4c0.4-0.9,0.6-2,0.6-3V206c-0.7-11.5-5.9-22.2-14.5-29.9
		C239.4,168.4,228.1,164.5,216.6,165L216.6,165z M196,190c5.7-4.9,13.1-7.6,20.6-7.4c6.9-0.6,13.8,1.5,19.2,6
		c5.4,4.5,8.7,10.9,9.3,17.8v13h-57.1v-13C188.2,200,191.1,194,196,190L196,190z M245.5,458.1l-2.8-0.7h-1.8
		c-1.7-0.4-3.5-0.5-5.2-0.5c-6.8-0.1-13.4,2.3-18.6,6.7c-5.2-4.3-11.8-6.7-18.6-6.6c-1.8,0-3.6,0.2-5.3,0.4h-1.7l-2.9,0.8L188.1,237
		h57.1L245.5,458.1z M217.1,529.2l-28.2-49.1h0c0-0.3,0-0.6,0-0.9c0,0,0-0.6,0.5-1l1.2-1.4l0.9-0.7v0c0.6-0.4,1.3-0.8,2-1.1h1
		c1.2-0.4,2.4-0.5,3.6-0.5c5.2,0,9.9,3.5,9.9,7.5v0c0,2.3,0.9,4.5,2.6,6.2s3.9,2.6,6.2,2.6s4.5-0.9,6.2-2.6s2.6-3.9,2.6-6.2
		c0-4,4.6-7.5,9.9-7.5v0c1.2,0,2.4,0.2,3.6,0.5h1c0.7,0.3,1.4,0.6,2,1.1l0.9,0.8v0c0.5,0.4,0.9,0.9,1.2,1.4c0.2,0.2,0.4,0.5,0.5,0.9
		c0,0.3,0,0.6,0,0.9L217.1,529.2z"/>
	<path class="st0" d="M208,237.5l17.5,0l0.3,197.4l-17.5,0L208,237.5z"/>
</g>
</svg>
