<svg xmlns="http://www.w3.org/2000/svg" viewBox="0 0 750.97 203.02"><defs><style>.cls-1{fill:#cf94af;}.cls-2{fill:#060606;}</style></defs><title>Asset 1</title><g id="Layer_2" data-name="Layer 2"><g id="Layer_1-2" data-name="Layer 1"><path class="cls-1" d="M114.28,42.34v8.9a3.07,3.07,0,0,0,2.8,3.4c1.5.3,1.8.7,1.8,2.2-.1,2.7-.7,3.3-3.4,3.3h-14.8c-3.1,0-3.5-1.3-3.4-4.2a1.38,1.38,0,0,1,1.1-1.3c2.9-1.1,4.1-3.4,4.1-6.4V34.34c0-1.3.4-2.7,0-4.1-.4-1.7-1.1-2.3-2.8-2.4-.9,0-1.9.2-2.3-.8a4.58,4.58,0,0,1,0-3.8c.4-.9,1.4-1,2.3-1.1a31.43,31.43,0,0,0,10-2.6c1.7-.7,2.3-.5,3.3.9a3,3,0,0,0,4.2,1c2-1.1,4-2.3,6.4-2.6,3.5-.5,6.8-.3,9.5,2.5a4.25,4.25,0,0,0,5.5.7,27.93,27.93,0,0,1,8-3.2c7.7-1.5,12.8,2.5,14.7,9.4a22.23,22.23,0,0,1,.8,6.3v10.8c0,1.8.1,3.7,0,5.5-.1,2.2.7,3.2,2.9,3.6,1.5.3,1.9.7,1.8,2.2-.1,2.7-.7,3.3-3.4,3.3h-13.6a12.25,12.25,0,0,1-1.9-.2,2.63,2.63,0,0,1-1.4-4.5,6,6,0,0,1,.8-.8,6.55,6.55,0,0,0,2.5-5.5c.1-4.9.1-9.8,0-14.6a11.68,11.68,0,0,0-.4-3.7c-.9-2.8-3.2-3.9-5.9-3.8a5.66,5.66,0,0,0-1.8.3c-2.8.7-3.9,2.3-3.6,5.6.3,3.7.1,7.3.2,11,.1,2.5,0,5,0,7.4,0,2,.6,2.7,2.5,3s2.2.8,2.1,3.3c-.1,1.7-.7,2.4-2.5,2.4-5.1,0-10.2.1-15.2,0a3,3,0,0,1-3.1-1.8,3.1,3.1,0,0,1,1-3.4,12.92,12.92,0,0,0,3.8-8.9,52.57,52.57,0,0,0-.7-8.9c-.2-1.5-.2-3-.3-4.5-.3-4-2.8-5.7-6.1-5.5a6.28,6.28,0,0,0-5.5,6.2c0,3.2.1,6.3,0,9.3Z"/><path class="cls-1" d="M603.08,45.54c1-3.4,2.1-6.6,3-9.9,1.1-3.8,2.3-7.7,3.3-11.5,1-3.6,3.2-4.4,6.7-4.2,3.1.1,4.4,1.9,5.1,4.7,1.8,7.3,4.3,14.5,6.4,21.7,0,.1.1.2.3.4,1.1-3.4,2.2-6.8,3.3-10.1a65.94,65.94,0,0,1,2.5-7.5c.9-2,.3-3.1-1.9-3.7-1.4-.4-1.8-.9-1.7-2.1.3-2.4.8-3.3,2.3-3.3h11.5a1.76,1.76,0,0,1,1.9,1.8,13.55,13.55,0,0,1,.2,2,1.7,1.7,0,0,1-.9,1.6,14.88,14.88,0,0,0-6.2,8.4c-2.1,6.5-4.9,12.8-6.9,19.4-.3.9-.5,1.8-.9,2.7-1.3,3.8-3.9,4.2-6.9,4.2-2.6,0-4.1-1.6-4.9-4a129.24,129.24,0,0,0-6.2-17.1,4,4,0,0,0-.9-1.5c-1.2,3.6-2.3,7-3.4,10.5-.8,2.6-1.7,5.2-2.5,7.8-1.3,4.2-4.7,5-8.3,4.1-1.7-.5-2.4-1.8-3-3.3l-7.8-22.5a44.9,44.9,0,0,1-1.9-5.9c-.3-1.3-1.4-1.7-2.2-2.4a3.37,3.37,0,0,1-1.1-4.2,3,3,0,0,1,3.3-1.8c4.2.4,8.5.1,12.7.2a5.7,5.7,0,0,1,1.3.1,2.46,2.46,0,0,1,2.2,1.9,2.72,2.72,0,0,1-.9,2.9c-2.4,1.9-2.7,4.2-1.9,7,1.2,4.2,2.4,8.4,3.8,12.6A2.42,2.42,0,0,1,603.08,45.54Z"/><path class="cls-1" d="M565.28,29.14v22.1c0,2.5.6,3.1,3.1,3.2,1.5,0,2.1.6,2.2,2.1.3,2.9-.7,3.8-3.5,3.5a8.85,8.85,0,0,0-2.3,0,47,47,0,0,1-5.3.2,8.05,8.05,0,0,1-4.8-1.5,1.82,1.82,0,0,0-2.4,0,17.74,17.74,0,0,1-8.9,2.9,14.9,14.9,0,0,1-13.7-8.1c-2.5-4.4-3.1-9.3-2.8-14.4.4-4.6,1.4-8.9,4.2-12.7a17.78,17.78,0,0,1,13.8-7.5,29.22,29.22,0,0,1,6.6.3c1.5.2,2.5-.5,2.3-1.8a30.09,30.09,0,0,1,.1-6c.1-2.7-.7-3.7-3.5-4.2-1.9-.3-2.4-.9-2.2-2.6.2-2.3.8-2.9,2.8-2.9,2.8.1,5.5-.7,8.3-1.1a17.85,17.85,0,0,1,2.3-.2c2.4,0,3.4.9,3.6,3.3a50.55,50.55,0,0,1,.2,5.5c-.1,6.7-.1,13.3-.1,19.9Zm-11.7,12.4c0-2.4,0-4.8.1-7.2.1-1.8-.1-3.6,0-5.4.1-1.4-.2-2.8-1.7-3.4-2.7-1.2-5.5-1.4-8.1.3a9.28,9.28,0,0,0-3.6,5.1,26.48,26.48,0,0,0-.8,14.5,12.69,12.69,0,0,0,3.8,7.2c1.7,1.5,3.5,2.2,5.7,1.3s4.3-2.2,4.5-5C553.68,46.44,553.58,44,553.58,41.54Z"/><path class="cls-1" d="M318.58,34.54V14.84c0-1.2.1-2.4.1-3.6,0-2.6-.6-3.7-3.6-4-1.6-.1-2-.5-2-2.1-.1-2.3.5-3.4,2.1-3.4,3.7,0,7.2-1.1,10.9-1.6a6.89,6.89,0,0,1,2-.1,2.25,2.25,0,0,1,2.2,1.7,8.57,8.57,0,0,1,.5,2.7c0,2.2.1,4.5,0,6.7,0,1.9.1,3.8.2,5.6.1,2.1,1.2,2.9,3.3,2.6a50.52,50.52,0,0,1,6.8-.7c6.8,0,11.3,3.5,14.1,9.4a25.46,25.46,0,0,1,2.5,13c-.7,9.2-6.5,17.3-15.5,19.5a18.31,18.31,0,0,1-12.2-1.4c-2.7-1.2-5.2-1.3-7.7.6-1.2.9-2.5.4-3.2-1a5.75,5.75,0,0,1-.5-2.6Zm26.7,7.4a29.82,29.82,0,0,0-2.5-12.5c-1.5-3-3.7-4.1-7.1-3.4-3.2.7-5.1,2.6-5.5,5.7-.1,1,.1,2.1.1,3.1v14c.1,3.4,1.9,5.8,4.9,6.4a6.45,6.45,0,0,0,7.5-3.8A24.78,24.78,0,0,0,345.28,41.94Z"/><path class="cls-1" d="M184.68,136.84v7.8c0,1.6.3,1.9,1.9,2.3s2,1.1,1.8,3.1c-.1,1.2-.7,1.6-2.2,1.6h-12.8c-1,0-1.9-.2-2.2-1.4-.4-1.9-.1-2.7,1.3-3.3a4.21,4.21,0,0,0,2.7-4.1c.3-4.8.2-9.6.2-14.4,0-2-.7-2.7-2.7-2.8-1.4-.1-1.7-.4-1.8-1.8-.1-1.9.3-2.5,1.6-2.7a34.31,34.31,0,0,0,8.9-2.3c1.4-.6,1.8-.4,2.6.8,1,1.5,2,1.8,3.4.8a13.18,13.18,0,0,1,6.8-2.3,8,8,0,0,1,5.7,2c2.2,1.9,2.9,2,5.4.4a13.43,13.43,0,0,1,9.9-2,9.23,9.23,0,0,1,7.9,8,49.41,49.41,0,0,1,.5,9.4v8.5c0,1.9.4,2.3,2.2,2.6,1.4.3,1.6.6,1.5,2.7-.1,1.2-.5,1.8-1.8,1.8h-12.8a2,2,0,0,1-2.1-1.5,2.09,2.09,0,0,1,.8-2.5,6,6,0,0,0,2.2-4.6v-12.7a5.27,5.27,0,0,0-1.7-4.4,5.91,5.91,0,0,0-6.5.1,3.65,3.65,0,0,0-1.3,3.3,53,53,0,0,1,.2,6.9v8.5a2,2,0,0,0,2,2.3,1.89,1.89,0,0,1,1.8,2.3c-.1,1.6-.6,2.2-2,2.2H193c-1.1,0-1.6-.5-1.6-1.5a2.89,2.89,0,0,1,.3-2.4c2-2.5,2.6-5.6,3-8.6a29.33,29.33,0,0,0-.2-9.8c-.5-2.1-1.3-4-3.7-4.4a4.74,4.74,0,0,0-5.8,4.6,64.39,64.39,0,0,0-.3,7.5Z"/><path class="cls-1" d="M721,73.34c2.5-2.8,4.6-5.6,4.9-9.3a16.86,16.86,0,0,0-2-8.2c-2.1-4.5-4.5-8.8-6.8-13.2a84.36,84.36,0,0,1-6.2-14.5,2.16,2.16,0,0,0-1.5-1.7,6,6,0,0,1-1.1-.6c-1.7-1-2.2-2.1-1.8-3.5a3.08,3.08,0,0,1,3.6-2.5c3.2.3,6.5.1,9.7.2h4.6c1.1,0,2.1.2,2.5,1.4a3.51,3.51,0,0,1-.6,3.9c-2.7,2.3-2.9,2.9-1.5,6.2,2.3,5.1,4.5,10.2,6.8,15.3.1.2.1.6.6.7.8-2.3,1.6-4.6,2.4-7,1.4-4,2.9-8.1,4.3-12.1.7-1.9.6-2.2-1.4-2.8a1.81,1.81,0,0,1-1.4-1.8,6.88,6.88,0,0,1,.3-2.5,1.85,1.85,0,0,1,2-1.3q4.5,0,9-.3a3.17,3.17,0,0,1,3.3,2.1,2.59,2.59,0,0,1-.5,3.1l-.6.6c-3.2,1.6-4.3,4.8-5.6,7.8-2.2,5.4-3.8,11-5.8,16.5-2.7,7.4-5.4,14.8-8.1,22.1a17.39,17.39,0,0,1-5.2,7.9c-3,2.4-9.5,2.9-12.4-.7a6.2,6.2,0,0,1,3.4-10,4,4,0,0,1,4.3,2.3A9.73,9.73,0,0,0,721,73.34Z"/><path class="cls-1" d="M254.38,47.74c1-2.7,1.9-5.2,2.8-7.8,1.4-3.8,2.8-7.7,4.2-11.5.7-1.9.6-2.2-1.4-2.6a2,2,0,0,1-1.8-2.2v-1.3a2,2,0,0,1,2.3-2.2h9.9c1.2.3,2.6.5,2.9,1.9a3.38,3.38,0,0,1-1.5,3.4c-3,2.3-4.6,5.6-5.8,9-4.2,11.9-8.3,23.7-12.5,35.6a22.78,22.78,0,0,1-6.2,9.7c-3.3,2.9-9.2,2.8-12-.3-1.5-1.7-2.4-3.7-1.7-6.1s2.6-3.6,4.9-4.2a3.42,3.42,0,0,1,3.2,1,10.59,10.59,0,0,1,2.2,2.9c.3.4.4.6.8.1,2.3-3.5,4.2-7,3.9-11.3a14.78,14.78,0,0,0-2.2-6.8,194.91,194.91,0,0,1-9.7-18.7c-1.1-2.6-2.2-5.2-3.1-7.9a4.38,4.38,0,0,0-1.7-2.3l-.9-.6c-1.5-1.1-1.9-1.9-1.5-3.1a3.51,3.51,0,0,1,3.5-2.6c5,.4,10,.1,15,.2a1.94,1.94,0,0,1,2,1.5c.4,1.3.5,2.6-.7,3.4-2.8,1.8-2.9,4-1.6,6.9,2.2,4.9,4.3,9.9,6.5,14.8C254,46.94,254.18,47.24,254.38,47.74Z"/><path class="cls-1" d="M214.38,40.94c-.1,3.7.2,7.4-.4,11.1a1.68,1.68,0,0,0,1.5,2.1,9.85,9.85,0,0,0,1.7.2,2.13,2.13,0,0,1,1.2.3c.7.5,1,2.5.6,3.8a2,2,0,0,1-2.3,1.5c-2.6-.4-5.1,0-7.6.1a9,9,0,0,1-6.2-1.7c-1-.8-2-.1-2.8.4a14.16,14.16,0,0,1-11.3,2c-6.1-1.3-9.4-7.1-8-13.3,1.1-4.6,4.2-7.3,8.3-9.1a25,25,0,0,1,10-2.5c2.3,0,3.3-1.2,3.4-3.4a23.08,23.08,0,0,0-.3-3.7c-.6-3.5-2.6-4.4-6-4.2-2.3.2-3.4,1.5-3.2,3.9.2,3.6-1.7,5.6-4.9,6.2-2.4.5-4.9-1.5-5.7-4.4a6.2,6.2,0,0,1,2.2-6.6,20.15,20.15,0,0,1,14.8-5.2,28.4,28.4,0,0,1,6.5,1c4.6,1.4,6.8,4.8,8,9.2C214.78,32.84,214.38,36.94,214.38,40.94Zm-18.1,12c3.4,0,6.3-1.5,5.9-6a15.06,15.06,0,0,1-.1-3c.2-1.3-.4-1.9-1.8-1.9-3.3.1-5.7,1.9-7.5,4.4a4.07,4.07,0,0,0-.1,4.6A3.49,3.49,0,0,0,196.28,52.94Z"/><path class="cls-1" d="M508.88,40.24c-.1,4.6.2,8-.4,11.4-.3,1.8.6,2.7,2.5,2.8.9,0,2-.2,2.3,1s.6,2.8-.4,4a1.66,1.66,0,0,1-1.6.6c-2.4-.4-4.7.2-7,.2s-4.3-.1-6.2-1.3c-1.4-.9-2.6-.6-4,.2-4.6,2.6-9.4,3.3-14.1.5-7.6-4.4-6.2-14.6-.5-18.8a24.18,24.18,0,0,1,13.7-4.8c2.8-.1,4.1-1.6,3.7-4.5-.2-1-.1-2-.3-3-.7-2.9-2.7-4.4-5.7-4-2.6.3-3.4,1.4-3.4,4.2,0,3.1-1.4,5-4.1,5.7-3,.8-5.5-.8-6.5-4a6.46,6.46,0,0,1,2.3-7.1,21.72,21.72,0,0,1,22.6-3.2c3.5,1.5,5.3,4.4,6.3,8A48.55,48.55,0,0,1,508.88,40.24Zm-22.3,8.6a4.06,4.06,0,0,0,4.9,4.1c3.9-.6,5.3-2.2,5.2-6.2a18.21,18.21,0,0,1-.1-3.3c.1-.8-.5-1.3-1.4-1.4a8.63,8.63,0,0,0-6.4,2.8C487.58,45.94,486.48,47,486.58,48.84Z"/><path class="cls-1" d="M691.78,42.74v8.9c0,1.9.7,2.6,2.5,2.8,1.6.2,2.1.7,2.1,2.3,0,3-.6,3.5-3.6,3.2-2-.2-4,.2-6,.2-2.3,0-4.5-.2-6.4-1.6-.9-.6-1.7-.1-2.4.3a16.16,16.16,0,0,1-9.1,2.4c-2.5-.2-5-.5-7.1-2.2a10.81,10.81,0,0,1-3.9-9.9c.6-5.8,4.5-8.9,9.5-11A22.75,22.75,0,0,1,677,36c2.4.1,3.3-.9,3.3-3.4a13,13,0,0,0-.7-4.8,4.35,4.35,0,0,0-2.6-2.7,7.26,7.26,0,0,0-4.6-.2,2.81,2.81,0,0,0-2.2,2.9,10.8,10.8,0,0,1-.2,3.1,4.91,4.91,0,0,1-4.5,3.8,5.07,5.07,0,0,1-5-2.6c-1.6-3-.9-6.3,2-8.8,3.3-2.9,7.2-4.1,11.5-4.6a21.54,21.54,0,0,1,7.6.5c5.7,1.3,8.8,4.7,9.8,10.5C692.08,34,691.68,38.34,691.78,42.74Zm-11.7,3.4v-2.3c0-1.2-.4-1.7-1.7-1.8a8.71,8.71,0,0,0-8.3,6,3.79,3.79,0,0,0,3,4.8c4.5.7,7.2-1.6,7.1-6.2A.75.75,0,0,1,680.08,46.14Z"/><path class="cls-1" d="M460.18,39.74c-.1,5.6-1.3,10.8-5,15.1a17.87,17.87,0,0,1-10.2,5.8,22.65,22.65,0,0,1-14.3-1.3c-6.9-3.3-10.5-8.9-11.3-16.5a21.39,21.39,0,0,1,3.9-15.3,19.68,19.68,0,0,1,14.5-8.5,21.36,21.36,0,0,1,11.4,1.6c6.1,2.7,9.3,7.7,10.6,14A43.79,43.79,0,0,1,460.18,39.74Zm-12.5,1.8a24.49,24.49,0,0,0-.3-5.4,18.36,18.36,0,0,0-2.2-7.9c-2.2-3.8-6.7-4.7-9.9-1.8a10.09,10.09,0,0,0-2.9,5.7,31.29,31.29,0,0,0-.5,11.4,20.28,20.28,0,0,0,2.8,8.7,6.62,6.62,0,0,0,6.9,3.1c2.5-.6,3.9-2.4,4.9-4.6C447.78,47.84,447.58,44.64,447.68,41.54Z"/><path class="cls-1" d="M71.88,38.54c-3.9-.5-7.9.3-11.8-.4-2.5-.4-4,1.3-3.8,4.3a13.18,13.18,0,0,0,7,11.1c2.5,1.3,5,.8,7.6.1a14.24,14.24,0,0,0,6.3-3.6c.7-.7,1.4-1.3,2.5-.9a4,4,0,0,1,2.5,2.6c.3,1-.5,1.6-1,2.3a19.61,19.61,0,0,1-8.4,5.8,23.39,23.39,0,0,1-15,.7c-7.1-2.1-11.2-7.2-12.9-14.1-2.1-8.7.1-16.4,6.5-22.7a16.56,16.56,0,0,1,9.2-4.4,23.31,23.31,0,0,1,12,1c5.1,1.9,7.9,5.9,9.6,10.9a10.88,10.88,0,0,1,.7,3c.1,2-.7,3-2.6,3.7s-4,.4-6,.7A20.93,20.93,0,0,0,71.88,38.54Zm-7.3-13.7h-1.3a6,6,0,0,0-5.4,4.4c-.7,2.6.5,3.9,3.1,3.5a5,5,0,0,1,2.7.2.88.88,0,0,0,.7.1c1.2-.8,2.5-.4,3.7-.2a1.9,1.9,0,0,0,2.4-1.2,5,5,0,0,0,.2-2.7C69.78,26.14,67.78,24.84,64.58,24.84Z"/><path class="cls-1" d="M18.38,61.34a12.63,12.63,0,0,1-3.8-.4c-5-.9-7.6-4.3-8.6-9a40.55,40.55,0,0,1-.8-7c-.1-2.7-.3-5.4-.2-8.1a31.53,31.53,0,0,1,.6-6.1c.4-2.5-.2-3.5-2.7-4C1,26.34.38,25.84.08,24a3.64,3.64,0,0,1,1.7-4,23.93,23.93,0,0,0,4.5-3.1,21.8,21.8,0,0,0,4.4-5.6,2.89,2.89,0,0,1,3.1-1.6,12,12,0,0,1,2,.3,1.85,1.85,0,0,1,1.7,2.1c0,1.2-.2,2.3-.2,3.5-.1,3.7,2.2,5,5.5,4.6.5-.1.9-.1,1.4-.2,1.3-.1,2.5-.1,3.1,1.4a4.63,4.63,0,0,1-.4,4.8,2.06,2.06,0,0,1-1.8.8,19.27,19.27,0,0,1-2.4-.1c-3.5-.7-5.7,1-5.5,4.5.3,5.8.1,11.5.2,17.3a5.85,5.85,0,0,0,1.3,3.8,4.07,4.07,0,0,0,5.8,1,32.53,32.53,0,0,0,2.9-2.3c1.5-1.2,2.3-1.2,3.5,0,1.5,1.5,1.7,2.7.6,4.1a16.64,16.64,0,0,1-9.5,5.8A21.74,21.74,0,0,1,18.38,61.34Z"/><path class="cls-1" d="M383.18,60.14h-7.8c-2,0-2.6-.5-2.9-2.3-.4-2,.2-3.1,1.9-3.7,2.1-.7,2.8-2.3,3-4.3.3-2.7.2-5.5.3-8.3V30.74c0-2-.6-2.6-2.6-2.6a3.06,3.06,0,0,1-2.6-4.7,2,2,0,0,1,1.5-1,53.13,53.13,0,0,0,11.1-2.8,2.92,2.92,0,0,1,.9-.2c1.6-.4,2.3,0,2.8,1.6a22.91,22.91,0,0,1,.7,2.8c.1.3-.1.7.3.9s.5-.3.7-.5A16.15,16.15,0,0,1,396,20a10.86,10.86,0,0,1,7.1-.8,4.78,4.78,0,0,1,3.3,2.4c1.1,2,1.8,4,1,6.3-.9,2.5-4.8,5.1-8.4,2.8-.4-.3-.9-.6-1.3-.9a4.11,4.11,0,0,0-5.8.3,7.61,7.61,0,0,0-2.6,6c0,4.9,0,9.8-.1,14.8a2.23,2.23,0,0,0,1.9,2.5c.9.3,2.1.2,2.5,1.4a6.34,6.34,0,0,1-.1,4.3c-.5,1.1-1.6,1.2-2.7,1.2C388.38,60.14,385.78,60.14,383.18,60.14Z"/><path class="cls-1" d="M155.18,132.74v11.2c0,2.4.4,2.9,2.8,3.2,1.1.1,1.5.8,1.5,1.8,0,1.6-.4,2.8-1.3,2.7-3-.2-6,.6-9,.1a6.6,6.6,0,0,1-2.7-1.2,1.85,1.85,0,0,0-2.5-.1,15.46,15.46,0,0,1-6.8,2.4c-5.7.6-8.6-2.4-10.3-6.8a18.92,18.92,0,0,1-1.2-6.7c-.1-2.4.1-4.7-.2-7.1a20.55,20.55,0,0,1,.2-3.5c0-2.1-.6-3.1-2.7-3.3-1.4-.2-1.3-1.1-1.3-2.1,0-1.6.4-2.2,1.5-2.3a29,29,0,0,0,8.6-2.4c2.5-1.1,3.8-.2,3.8,2.5v18.8a13.72,13.72,0,0,0,.5,4,3.58,3.58,0,0,0,3.8,2.7c3.5-.1,6.3-1.7,6-6-.3-4.1,0-8.1,0-12.2,0-2.2-.6-2.8-2.8-2.9-1.3-.1-1.7-.5-1.7-2,0-1.8.4-2.5,1.7-2.5a21.42,21.42,0,0,0,7.9-2c3.3-1.5,4.3-.8,4.3,2.7-.1,3.7-.1,7.3-.1,11Z"/><path class="cls-1" d="M55.78,118.14c4.8,0,8.6,1.1,11.6,4.3,2.1,2.3,3.7,4.9,3.6,8.2-.1,2.6-1.4,3.9-3.8,3.5s-4.9-.1-7.4-.2-4.8-.1-7.2-.1c-2,0-2.9.9-2.7,2.9.4,3.4,1.6,6.6,4.6,8.6,3.1,2.2,6.3,1.4,9.4-.2a13.09,13.09,0,0,0,2.7-1.9,2.4,2.4,0,0,1,4.1,1.3,1.79,1.79,0,0,1-.6,1.8,19.46,19.46,0,0,1-14.1,6.1c-8.5,0-14.4-5.4-15.8-13.1-1.2-6.6.4-12.6,5.4-17.4A15.23,15.23,0,0,1,55.78,118.14Zm5.5,9c0-.1-.1-.5-.1-.8-.7-2.6-3.2-3.9-6.2-3.2-1.8.4-3.4,1.2-4,3.2-.7,2.2,0,3.2,2.3,3.1,1.9,0,3.8-.2,5.6-.1C60.48,129.54,61.28,128.94,61.28,127.14Z"/><path class="cls-1" d="M257.58,134c-2.3.2-4.8-.2-7.2.2-1.6.3-2.2,1-2.1,2.5a12,12,0,0,0,2.6,7.3c2.3,2.8,6.2,3.5,10.2,1.8a12,12,0,0,0,3.8-2.5c1.3-1.3,2.2-1.3,3.3-.2,1.2,1.3,1.2,2.4,0,3.6-3.9,3.8-8.4,6.1-13.9,5.9-8.7-.2-14.1-5.3-15.6-13.5a17.55,17.55,0,0,1,2.2-13.2,16.25,16.25,0,0,1,12.4-7.9,15.41,15.41,0,0,1,12.9,4.4,12.79,12.79,0,0,1,3.4,7.1,3.44,3.44,0,0,1-2.6,3.8,12.57,12.57,0,0,1-3.3.5C261.48,134,259.68,134,257.58,134Zm-2.9-11c-3.3,0-5.7,2.2-5.5,5.1,0,.6.2,1.2.8,1.3a32.69,32.69,0,0,0,4.4.1c.8.1,1.7-.3,2.5-.1,1.7.3,2.4-.3,2.5-2C259.68,124.84,257.68,123,254.68,123Z"/><path class="cls-1" d="M108.78,123.84v2.9c0,1,.1,2.1-1.2,2.5a3.27,3.27,0,0,1-3.7-.7c-.6-.8-1.1-1.7-1.7-2.5-2.1-2.7-4.9-3.4-8.1-2.9a3.09,3.09,0,0,0-2.7,2.9,2.92,2.92,0,0,0,2,3c2.9,1.2,5.9,2.4,8.9,3.6s5.8,2.9,7.4,5.9a8.92,8.92,0,0,1-3.3,11.9c-3.9,2.4-8.2,2.5-12.5,1.7a36.5,36.5,0,0,0-8.1-.8c-1.6.1-2.2-.6-2-2.1a25.73,25.73,0,0,0-.1-6.2,2.06,2.06,0,0,1,1.5-2.5,2.33,2.33,0,0,1,3.1,1,13.73,13.73,0,0,1,1.3,2c2,3.4,6.2,4.6,9.9,4.1a3,3,0,0,0,2.6-2.6,2.69,2.69,0,0,0-1.8-3.1c-3.4-1.5-6.9-2.9-10.4-4.4-2.4-1.1-4.6-2.5-5.8-5a10.14,10.14,0,0,1,4.5-12.9,14.48,14.48,0,0,1,8.9-1.5c2.9.3,5.8.8,8.8-.1,1.2-.3,1.9.2,2.2,1.5A16.93,16.93,0,0,1,108.78,123.84Z"/><path class="cls-1" d="M16,123.24c.7-.8,1.3-1.7,2-2.4a9.93,9.93,0,0,1,7.3-2.7,5.13,5.13,0,0,1,4.5,3.3c.6,2.1.6,4.1-1.2,5.8-1.5,1.4-3.2,1.3-4.9.7-.7-.2-1.3-.7-1.9-.9-3.1-1.3-5.9.3-6.3,3.6-.5,4.5-.2,9-.2,13.5,0,1,.7,1.5,1.6,1.8,2.1.7,2.9,2.3,2,4.4a1.63,1.63,0,0,1-1.7,1.1h-14a1.54,1.54,0,0,1-1.6-1.4c-.4-1.9-.1-2.5,1.6-3.4a4.51,4.51,0,0,0,2.4-3.9c.4-5,.2-10,.2-15a2.13,2.13,0,0,0-2.2-2.3c-2.2-.2-3-1.7-2.1-3.7a1.33,1.33,0,0,1,1.1-.8,38.84,38.84,0,0,0,8.9-2.3c2.5-.8,3.4-.2,3.6,2.4.1.5.2,1.1.3,1.6A3.08,3.08,0,0,0,16,123.24Z"/><path class="cls-2" d="M289.68,183.34v18.1c0,.8-.2.9-1,.9-2.1,0-2.1,0-2.1-2.1V179c0-.9.2-1.3,1.1-1.5,2.3-.4,3-.2,4.1,2,2.2,4.4,4.4,8.9,6.7,13.4.2.5.5.9.8,1.5,1.3-2.7,2.6-5.2,3.9-7.8,1.2-2.4,2.4-4.9,3.6-7.3a3.35,3.35,0,0,1,4.7-1.6c.6.2.3.7.3,1v22.5c0,.9-.2,1.3-1.1,1.1H310c-.8.1-1.1-.2-1.1-1V184c0-.4.3-1.1-.2-1.3s-.6.7-.8,1c-2.1,4.1-4.1,8.2-6.2,12.3a9.29,9.29,0,0,0-.5,1c-1.4,2.3-2.8,2.3-4.1-.1-1.6-3.1-3.2-6.2-4.8-9.2-.8-1.5-1.7-3-2.5-4.6C289.88,183.24,289.78,183.34,289.68,183.34Z"/><path class="cls-2" d="M421.58,182.64a2.09,2.09,0,0,0-.2,1.3V201c0,1.1-.3,1.3-1.3,1.3-1.6,0-1.6,0-1.6-1.6v-21.8a1.19,1.19,0,0,1,1.1-1.4c2.2-.5,3-.2,4,1.8l6.9,13.8c.2.4.4.8.7,1.3.9-1.8,1.8-3.6,2.6-5.3,1.5-3.2,3.3-6.2,4.6-9.5.9-2.3,2.8-2.4,4.8-2,.5.1.5.4.5.8v23.3c0,.6-.2.8-.8.8h-.8c-.9.2-1.2-.1-1.1-1.1v-17.5c0-.4.2-.9-.3-1s-.6.5-.7.8l-6.3,12.9a6.62,6.62,0,0,1-1.5,2.2,1.36,1.36,0,0,1-2.2-.1,9.13,9.13,0,0,1-.8-1.3c-2.1-4.2-4.2-8.5-6.3-12.7A6.88,6.88,0,0,0,421.58,182.64Z"/><path class="cls-2" d="M710.38,183.44a2,2,0,0,0-.3,1.4v16.3c0,.8-.1,1.2-1.1,1.2-1.9-.1-1.9,0-1.9-2v-21.6c0-1,.4-1.2,1.2-1.3,1.9-.2,2.9.9,3.8,2.3,2.1,3.5,4.2,7,6.3,10.4a73.83,73.83,0,0,0,4.6,6.8v-18.3c0-.8.1-1.2,1.1-1.1,1.8.1,1.8,0,1.8,1.8V201c0,1-.4,1.2-1.2,1.3-1.7.2-2.6-.9-3.4-2.2-2.4-4-4.8-8-7.5-11.9C712.68,186.84,711.58,185.24,710.38,183.44Z"/><path class="cls-2" d="M573.18,190v-11.4c0-.8.2-1,1-1a60.3,60.3,0,0,1,8.5.1,11.33,11.33,0,0,1,10.1,11.5c.1,3.2-.4,6.2-2.4,8.8-2.5,3.3-6.1,4.4-10,4.5-2.1,0-4.2-.1-6.2,0-.8,0-.9-.2-.9-.9C573.28,197.64,573.18,193.84,573.18,190Zm3.1-.1v7.8c0,1.8,0,1.8,1.7,1.8.8,0,1.7.1,2.5.1,2.8-.1,5.3-.9,7-3.3a11.29,11.29,0,0,0,2.1-5.5c.4-4-2-9.5-7.2-10.3a31.08,31.08,0,0,0-5.3-.1c-.7,0-.9.2-.9,1C576.38,184.24,576.28,187.14,576.28,189.94Z"/><path class="cls-2" d="M484.18,189.84v-11.5c0-.9.3-1.1,1.1-1,2.9.3,5.9.1,8.8.6a10.4,10.4,0,0,1,9.2,8.8c.8,4.2.4,8.2-2.4,11.7-2.2,2.8-5.3,3.9-8.8,4-2.4.1-4.7,0-7.1,0-.8,0-.9-.2-.9-.9C484.18,197.64,484.18,193.74,484.18,189.84Zm2.9.1v8.8c0,.6.1.9.8.9,1.1,0,2.2.1,3.4.1,3.1,0,5.7-1,7.4-3.8a11.09,11.09,0,0,0,1.7-4.7c.6-3.7-1.7-9.8-7.1-10.7a23.5,23.5,0,0,0-5.3-.1c-.8,0-1,.2-1,1C487.18,184.24,487.08,187,487.08,189.94Z"/><path class="cls-2" d="M685.18,190.24h8.5c.6,0,.8.2.8.7v10.6c0,.3.2.7-.4.7s-1.3.2-1.6-.6l-.9-2.4c-.1,0-.2,0-.2.1-3.3,4.3-8.3,4.8-12.7,1.3-2.5-2-3.6-4.8-4.1-7.9a14.65,14.65,0,0,1,2.7-11.6c3.3-4.6,12.9-5.8,16.9-.2.6.9.4,1.2-.5,1.6-1.4.6-2.4-.2-3.3-1a6.86,6.86,0,0,0-9.5.4c-2.6,2.6-3.3,5.8-3.1,9.3a9.94,9.94,0,0,0,3,7,6.73,6.73,0,0,0,7.4,1.2,6,6,0,0,0,3.5-5.9,1.11,1.11,0,0,0-.9-1.2,24.52,24.52,0,0,0-2.7-.2A2.65,2.65,0,0,1,685.18,190.24Z"/><path class="cls-2" d="M639.68,177c4.1,0,6.9,2,7.8,5.5.2.7.1.9-.6,1a1.94,1.94,0,0,1-2.4-1.1c-1.2-2.8-6.2-3.4-8.8-1.5-2.2,1.7-2,4.6.6,5.7,2.2,1,4.5,1.7,6.7,2.5l2.1.9a6.22,6.22,0,0,1,3.7,5.7,6.33,6.33,0,0,1-3.8,5.9,11.55,11.55,0,0,1-10.1.2,7,7,0,0,1-3.1-2.8,12.81,12.81,0,0,1-1.1-2c-.2-.6-1.1-1-.5-1.7s1.7-.3,2.5-.4c.5,0,.5.6.7,1,1.8,3.6,5.5,5.1,8.9,3.4,1.5-.7,2.8-1.7,2.8-3.4s-1.1-2.9-2.4-3.7a36,36,0,0,0-5.4-2.2,15.62,15.62,0,0,1-3.9-1.9,5.79,5.79,0,0,1,.1-9.7A14.19,14.19,0,0,1,639.68,177Z"/><path class="cls-2" d="M547.28,202.44a2,2,0,0,1-2.1-1.5,25.33,25.33,0,0,1-1.2-3.6,1.62,1.62,0,0,0-1.7-1.3c-2.1,0-4.2.1-6.3.1a3,3,0,0,0-3,2.2,30.54,30.54,0,0,1-1.3,3.2c-.4.8-2.5,1.3-3.2.7-.3-.3,0-.7.1-1,1.3-3.9,2.6-7.7,3.9-11.5,1.2-3.4,2.3-6.8,3.5-10.2.5-1.6,1.1-2.1,2.7-2.1,1.4,0,1.9.4,2.4,2l7.2,21.6C548.78,202.34,548.68,202.44,547.28,202.44Zm-8.7-8.9H542c.6,0,.7-.2.5-.7-1.2-3.4-2.3-6.9-3.5-10.3-.1-.2-.1-.5-.4-.5s-.3.3-.4.5c-1.2,3.4-2.3,6.8-3.5,10.3-.2.6,0,.8.6.7Z"/><path class="cls-2" d="M343,186.94c0,2.8.1,5.5,0,8.3a7.38,7.38,0,0,1-5.8,7.3,12.61,12.61,0,0,1-7.2-.1,7.5,7.5,0,0,1-5.4-7.1c-.3-5.6-.1-11.2-.1-16.8,0-.6.1-.7.7-.8,2.2-.1,2.2-.1,2.2,2v13.9c0,2.5.7,4.8,3.3,5.9a8.31,8.31,0,0,0,6.2,0c2.3-.9,3.1-2.9,3.2-5.2.1-5.2,0-10.4.1-15.6,0-.4-.3-1,.3-1.1a5.33,5.33,0,0,1,2.5.2c.1,0,.1.4.1.7,0,2.7,0,5.6-.1,8.4Z"/><path class="cls-2" d="M456.78,190v-11.4c0-.7.2-.9.9-.9,4.4,0,8.7.1,13.1,0,1.2,0,.9.6.9,1.3s.3,1.3-.9,1.3c-3.3-.1-6.6,0-10,0-.7,0-1,.1-.9.9q.15,3.3,0,6.6c0,.8.2.9.9.9H470c1.6,0,.9,1.1,1.1,1.8.3.9-.5.8-1,.8h-9.2c-.7,0-1,.1-1,1q.15,3.3,0,6.6c0,.8.3,1,1,1h9.8c.9,0,1.1.3,1,1.1,0,1.7,0,1.7-1.7,1.7h-12.1c-.9,0-1.2-.1-1.1-1.1C456.88,197.54,456.78,193.74,456.78,190Z"/><path class="cls-2" d="M604.38,190v-11.3c0-.8.1-1.1,1-1.1,4.4.1,8.7,0,13.1,0,.7,0,1.2.1.9.9-.2.6.5,1.7-1,1.6-3.3-.1-6.6,0-10,0-.8,0-1.1.2-1.1,1,.1,2.2.1,4.3,0,6.5,0,.8.3.9,1,.9h9.4c1.6,0,.7,1.2,1,1.8.3.9-.4.8-.9.8h-9.1c-.8,0-1.2.1-1.1,1.1.1,2.1.1,4.2,0,6.4,0,1,.3,1.1,1.1,1.1h9.7c.8,0,1,.2,1,1,0,1.8,0,1.8-1.8,1.8h-12.1c-.9,0-1.1-.2-1-1.1C604.48,197.54,604.38,193.74,604.38,190Z"/><path class="cls-2" d="M384.78,191.14v10.1c0,.9-.2,1.2-1.1,1.2-2,0-2,.1-2-1.9v-19.1c0-1-.2-1.3-1.2-1.3-2,.1-3.9,0-5.9,0-.7,0-1-.1-1-.9,0-1.8,0-1.8,1.8-1.8h16.2c1.6,0,.9,1.1,1.1,1.8.2.9-.5.8-1,.8h-6.1c-.7,0-.9.2-.9.9C384.78,184.34,384.78,187.74,384.78,191.14Z"/><path class="cls-2" d="M356,189.94v-11.1c0-1,.3-1.3,1.2-1.1h.8c.7-.1.9.2.9.9v10.8c0,3,.1,6,0,9,0,1.2.4,1.4,1.5,1.4,2.8-.1,5.7,0,8.5-.1,1.2,0,1.1.6,1,1.3s.2,1.4-1,1.4c-4-.1-7.9-.1-11.9,0-.8,0-1-.3-1-1C356.08,197.54,356,193.74,356,189.94Z"/><path class="cls-1" d="M287,142.44a4.8,4.8,0,0,1,5,5.1,4.73,4.73,0,0,1-4.8,5c-3.1,0-5.3-2-5.2-5S283.58,142.24,287,142.44Z"/><path class="cls-2" d="M663.38,189.94c0,3.8-.1,7.6,0,11.4,0,1.4-.8,1-1.5,1.1s-1.3.1-1.3-1c.1-7.5,0-15.1,0-22.7,0-.8.1-1.2,1-1.1h.6c.9-.1,1.2.2,1.2,1.1C663.28,182.54,663.38,186.24,663.38,189.94Z"/><path class="cls-2" d="M515.38,189.94c0-3.8.1-7.6,0-11.4,0-1.2.7-1,1.4-1s1.4-.3,1.4.9c-.1,7.6,0,15.3,0,22.9,0,1.6-1.2.8-1.9,1-.9.3-.8-.4-.8-1C515.38,197.64,515.38,193.84,515.38,189.94Z"/><path class="cls-2" d="M405,190c0,3.8-.1,7.5,0,11.3.1,1.7-1.1,1-1.8,1.2-1,.2-.9-.5-.9-1.1v-22.7c0-1.4.8-1,1.5-1.1.9-.1,1.2.2,1.2,1.1Z"/></g></g></svg>