<svg xmlns="http://www.w3.org/2000/svg" viewBox="0 0 320.78 102.84"><defs><style>.cls-1{fill:#fff;}</style></defs><title>title</title><g id="Layer_2" data-name="Layer 2"><g id="Layer_1-2" data-name="Layer 1"><g id="title"><path class="cls-1" d="M4,32.35l.1-11.57H.82v-4a5,5,0,0,0,2.9-1,9.29,9.29,0,0,0,2.33-2.35A9.5,9.5,0,0,0,7.39,10.8h3.55l0,6H17v3.7l-6.09.14-.05,11.81q0,4.65,2.88,4.65,2.29,0,4.37-2.88l2.3,2.16a11.09,11.09,0,0,1-4.51,4.25,11.41,11.41,0,0,1-4.42.94Q4,41.57,4,32.35Z" transform="translate(-0.67 -4.18)"/><path class="cls-1" d="M29.38,40a10.61,10.61,0,0,1-4.18-4.44,14.47,14.47,0,0,1-1.49-6.72,13.72,13.72,0,0,1,1.51-6.31,12.13,12.13,0,0,1,4.25-4.73A11.19,11.19,0,0,1,35.71,16a11.25,11.25,0,0,1,7.75,2.74q3.1,2.73,3,9.12l-15.74.29a12,12,0,0,0,1.61,6.67,5.72,5.72,0,0,0,5.16,2.45,8.76,8.76,0,0,0,3.6-.87,9.51,9.51,0,0,0,3.45-2.73l2.16,2a12.91,12.91,0,0,1-11.18,5.86A12.09,12.09,0,0,1,29.38,40ZM39.89,24.82q-.15-5.43-3.94-5.43a4.08,4.08,0,0,0-3.29,1.47,7.88,7.88,0,0,0-1.6,4Z" transform="translate(-0.67 -4.18)"/><path class="cls-1" d="M53.64,39.77a6.3,6.3,0,0,1-1.75-4.59,6.94,6.94,0,0,1,3.93-6.4,21.14,21.14,0,0,1,9.46-2.43V23.86c0-2.92-1.09-4.37-3.26-4.37a4.7,4.7,0,0,0-3.46,1.34,2.75,2.75,0,0,1,.58,1.83,3.07,3.07,0,0,1-.8,2.06,2.89,2.89,0,0,1-2.32.91,2.85,2.85,0,0,1-2.26-.93,3.4,3.4,0,0,1-.82-2.33,4.69,4.69,0,0,1,1.35-3.31A8.77,8.77,0,0,1,58,16.82,16,16,0,0,1,63.07,16Q71.95,16,72,25.2l0,7.87a42.17,42.17,0,0,1-.19,4.23q1.59-.15,3.12-.15V40.8H65.76c-.07-.42-.13-1.15-.19-2.21h0a9.57,9.57,0,0,1-7.1,3A6.36,6.36,0,0,1,53.64,39.77Zm11.59-4.63V29.76a10.77,10.77,0,0,0-4.68,1.44,3.54,3.54,0,0,0-1.85,3.12,2.3,2.3,0,0,0,.8,1.92,3,3,0,0,0,1.94.62A5.06,5.06,0,0,0,65.23,35.14Z" transform="translate(-0.67 -4.18)"/><path class="cls-1" d="M96.48,24.29c-.35-1-.61-1.75-.77-2.28s-.3-1.08-.43-1.66l-1.87.1V16.8h11.52v3.07a1.75,1.75,0,0,0-1.88,2,9.59,9.59,0,0,0,.29,1.73L105,29.47A41,41,0,0,1,106,34h0c.06-.25.19-.86.38-1.82s.48-2.08.87-3.36l3.5-12H116l3.84,13.25c.23.8.61,2.24,1.16,4.32h0a26.86,26.86,0,0,1,1.11-4.18L124,24.1c.22-.77.45-1.47.67-2.09s.47-1.19.72-1.71v0l-2.73.19V16.8h9.12v3.07q-2.55,0-4.32,5.19L122,40.94h-5.08l-3.32-10.22q-.77-2.4-1.68-5.9h0a75.8,75.8,0,0,1-2.21,8.2L107,40.94h-4.75Z" transform="translate(-0.67 -4.18)"/><path class="cls-1" d="M136.32,37.68c1.21,0,2-.34,2.33-1a7.87,7.87,0,0,0,.5-3.26v-8a41.69,41.69,0,0,1,.19-4.18l-3.36.15V17.76a22.42,22.42,0,0,0,4.9-.43,5.85,5.85,0,0,0,2.49-1H146V33.07a42,42,0,0,1-.2,4.23q1.54-.15,3.12-.15V40.8H136.32Zm4.08-26.76a3.86,3.86,0,0,1-1.06-2.76,4,4,0,0,1,1.11-2.81A3.44,3.44,0,0,1,143,4.18a3.31,3.31,0,0,1,2.57,1.15,4.12,4.12,0,0,1,1,2.83,4,4,0,0,1-1,2.78,3.25,3.25,0,0,1-2.56,1.11A3.53,3.53,0,0,1,140.4,10.92Z" transform="translate(-0.67 -4.18)"/><path class="cls-1" d="M156.24,32.35l.09-11.57h-3.26v-4a5,5,0,0,0,2.9-1,9.13,9.13,0,0,0,2.33-2.35,9.82,9.82,0,0,0,1.35-2.69h3.55l0,6h6.1v3.7l-6.1.14-.05,11.81q0,4.65,2.88,4.65c1.54,0,3-1,4.37-2.88l2.3,2.16a11,11,0,0,1-4.51,4.25,11.33,11.33,0,0,1-4.41.94Q156.23,41.57,156.24,32.35Z" transform="translate(-0.67 -4.18)"/><path class="cls-1" d="M175.68,37.68a3,3,0,0,0,1.89-.5,2.32,2.32,0,0,0,.77-1.37,13.48,13.48,0,0,0,.17-2.4V13.68a40.72,40.72,0,0,1,.19-4.18l-3.36.15V6a22.42,22.42,0,0,0,4.9-.43,5.91,5.91,0,0,0,2.49-1h2.6V18.72a12.78,12.78,0,0,1,3.45-1.9,10.4,10.4,0,0,1,3.55-.79c2.88,0,4.95.83,6.19,2.5s1.89,4.37,1.92,8.11v6.43a42.17,42.17,0,0,1-.19,4.23q1.55-.15,3.12-.15V40.8H190.75V37.68c1.21,0,2-.34,2.35-1a7.46,7.46,0,0,0,.53-3.26l0-6.82a9,9,0,0,0-.93-4.65,3.23,3.23,0,0,0-3-1.49,6.17,6.17,0,0,0-2.35.5,6.71,6.71,0,0,0-2,1.27V33.07a42,42,0,0,1-.2,4.23q1.59-.15,3.12-.15V40.8H175.68Z" transform="translate(-0.67 -4.18)"/><path class="cls-1" d="M223.68,37.68c1.21,0,2-.34,2.32-1a7.67,7.67,0,0,0,.51-3.26V25.34a40.49,40.49,0,0,1,.19-4.08l-3.36.15V17.76a22.42,22.42,0,0,0,4.9-.43,5.91,5.91,0,0,0,2.49-1h2.35c0,.06.07.86.2,2.4h.09a12.66,12.66,0,0,1,3.36-1.94,9.81,9.81,0,0,1,3.65-.75,7.6,7.6,0,0,1,3.62.79,5.69,5.69,0,0,1,2.33,2.38,14.35,14.35,0,0,1,3.84-2.3,10.51,10.51,0,0,1,4-.87c2.65,0,4.63.77,5.92,2.31S262,22.43,262,26v7.05c0,1.54-.07,3-.19,4.23q1.53-.15,3.12-.15V40.8H252.81V37.68a1.89,1.89,0,0,0,2-1,9,9,0,0,0,.43-3.24V26.06a7.49,7.49,0,0,0-1-4.29,3.26,3.26,0,0,0-2.78-1.27,6.62,6.62,0,0,0-4.13,1.58,20.9,20.9,0,0,1,.43,4.56v6.43a42.17,42.17,0,0,1-.19,4.23q1.54-.15,3.12-.15V40.8H238.27V37.68c1.12,0,1.84-.34,2.16-1a8.1,8.1,0,0,0,.48-3.26l0-7.49a7.65,7.65,0,0,0-.86-4.2,3.07,3.07,0,0,0-2.6-1.27,6.1,6.1,0,0,0-4.08,1.77V33.07a42.17,42.17,0,0,1-.19,4.23q1.55-.15,2.88-.15V40.8H223.68Z" transform="translate(-0.67 -4.18)"/><path class="cls-1" d="M271.46,39.77a6.3,6.3,0,0,1-1.75-4.59,6.94,6.94,0,0,1,3.93-6.4,21.14,21.14,0,0,1,9.46-2.43V23.86c0-2.92-1.09-4.37-3.26-4.37a4.7,4.7,0,0,0-3.46,1.34,2.75,2.75,0,0,1,.58,1.83,3.07,3.07,0,0,1-.8,2.06,2.89,2.89,0,0,1-2.32.91,2.85,2.85,0,0,1-2.26-.93,3.45,3.45,0,0,1-.82-2.33,4.69,4.69,0,0,1,1.35-3.31,8.77,8.77,0,0,1,3.67-2.24,16,16,0,0,1,5.11-.79q8.88,0,8.88,9.17l0,7.87a42.17,42.17,0,0,1-.19,4.23q1.59-.15,3.12-.15V40.8h-9.07c-.06-.42-.13-1.15-.19-2.21h-.05a9.57,9.57,0,0,1-7.1,3A6.36,6.36,0,0,1,271.46,39.77Zm11.59-4.63V29.76a10.77,10.77,0,0,0-4.68,1.44,3.54,3.54,0,0,0-1.85,3.12,2.3,2.3,0,0,0,.8,1.92,3,3,0,0,0,1.94.62A5.06,5.06,0,0,0,283.05,35.14Z" transform="translate(-0.67 -4.18)"/><path class="cls-1" d="M299.18,52.7a3.61,3.61,0,0,1-1.25-2.83,3.39,3.39,0,0,1,.89-2.33,2.9,2.9,0,0,1,2.23-1,2.3,2.3,0,0,1,1.75.74,2.73,2.73,0,0,1,.7,2,3.44,3.44,0,0,1-.05.62v.05c.61,0,1.29-.77,2-2.3a33.6,33.6,0,0,0,2-5.57L300,26.83a25.66,25.66,0,0,1-1.68-3.77,16.83,16.83,0,0,1-.63-2.71l-2.2.1V16.8h11.95v3.07c-1.35.16-2,.79-2,1.87a4.65,4.65,0,0,0,.48,1.88l4.71,10.75h0l1-3.22c.35-1.21,1-3.33,2-6.33a14.5,14.5,0,0,1,2-4.52v0l-2.73.19V16.8h8.54v3.07a4.18,4.18,0,0,0-2.4,1.73,14.64,14.64,0,0,0-1.82,3.74l-6,17.14a50.59,50.59,0,0,1-2.64,6.62,10.57,10.57,0,0,1-2.67,3.53,5.55,5.55,0,0,1-3.62,1.18A4.51,4.51,0,0,1,299.18,52.7Z" transform="translate(-0.67 -4.18)"/><path class="cls-1" d="M.87,88.12c.71,0,1.16-.2,1.37-.59a4.27,4.27,0,0,0,.31-1.9V73.78a22.51,22.51,0,0,1,.11-2.38l-2,.09V69.36a13,13,0,0,0,2.86-.25A3.43,3.43,0,0,0,5,68.52H6.36c0,.32.08.77.14,1.34h0a5.66,5.66,0,0,1,3.76-1.51,5.1,5.1,0,0,1,3,.87,5.71,5.71,0,0,1,2,2.48,9.24,9.24,0,0,1,.71,3.74,9,9,0,0,1-.87,4A6.55,6.55,0,0,1,9,83.25a7.36,7.36,0,0,1-2.49-.51v2.69c0,.8,0,1.63-.09,2.47a17.44,17.44,0,0,1,1.79-.09v2.13H.87Zm11-12.26a7.61,7.61,0,0,0-.75-3.53,2.37,2.37,0,0,0-2.22-1.46,2.71,2.71,0,0,0-1.33.34,2.84,2.84,0,0,0-1,.89v8.54a2.67,2.67,0,0,0,.82.35,3.82,3.82,0,0,0,1.11.16C10.69,81.15,11.82,79.38,11.82,75.86Z" transform="translate(-0.67 -4.18)"/><path class="cls-1" d="M24,82.38a6.36,6.36,0,0,1-2.55-2.49,7.46,7.46,0,0,1-.92-3.78,8.28,8.28,0,0,1,.95-4A7.08,7.08,0,0,1,24,69.33a6.69,6.69,0,0,1,3.54-1,7.39,7.39,0,0,1,3.61.87,6.21,6.21,0,0,1,2.52,2.51,7.59,7.59,0,0,1,.93,3.82,9,9,0,0,1-.88,4.06,6.5,6.5,0,0,1-2.47,2.69,6.91,6.91,0,0,1-3.62,1A7.62,7.62,0,0,1,24,82.38Zm5.88-2.55a9.06,9.06,0,0,0,.61-3.58,11.17,11.17,0,0,0-.7-4.17,2.35,2.35,0,0,0-4.45-.31,8.31,8.31,0,0,0-.7,3.58,10.25,10.25,0,0,0,.76,4.17,2.47,2.47,0,0,0,2.32,1.74A2.18,2.18,0,0,0,29.85,79.83Z" transform="translate(-0.67 -4.18)"/><path class="cls-1" d="M39.42,81c.71,0,1.17-.2,1.36-.59a4.42,4.42,0,0,0,.3-1.9V73.78a22.51,22.51,0,0,1,.11-2.38l-2,.09V69.36a13,13,0,0,0,2.85-.25,3.49,3.49,0,0,0,1.46-.59h1.37c0,.28.07.64.09,1.09s0,.89,0,1.32h.06q1.91-2.58,4-2.58a2.61,2.61,0,0,1,1.75.59A2.34,2.34,0,0,1,51.07,72a1.7,1.7,0,0,1-1.43.62,2.21,2.21,0,0,1-1.24-.37A1.55,1.55,0,0,1,47.77,71a2.31,2.31,0,0,0-1.61.91,5,5,0,0,0-1.11,1.81v4.56c0,.9,0,1.72-.11,2.47a18.18,18.18,0,0,1,1.82-.09V82.8H39.42Z" transform="translate(-0.67 -4.18)"/><path class="cls-1" d="M56.84,77.87l.06-6.75H55V68.8a3,3,0,0,0,1.7-.56A5.33,5.33,0,0,0,58,66.87a5.51,5.51,0,0,0,.79-1.57H60.9l0,3.5h3.56V71L60.87,71l0,6.89c0,1.81.56,2.71,1.68,2.71A3.28,3.28,0,0,0,65.07,79l1.35,1.26a6.47,6.47,0,0,1-2.64,2.48,6.54,6.54,0,0,1-2.57.55Q56.85,83.25,56.84,77.87Z" transform="translate(-0.67 -4.18)"/><path class="cls-1" d="M70.08,81a1.43,1.43,0,0,0,1.38-.59,4.42,4.42,0,0,0,.3-1.9V71.1l-2,0V68.8h2V68q0-3.28,1.43-4.8a5.29,5.29,0,0,1,4.06-1.53,4.12,4.12,0,0,1,2.69.73,2.18,2.18,0,0,1,.87,1.73,1.92,1.92,0,0,1-.48,1.33A1.63,1.63,0,0,1,79,66a1.61,1.61,0,0,1-1.22-.45,1.58,1.58,0,0,1-.44-1.15,2,2,0,0,1,.06-.56.86.86,0,0,0-.64-.22c-.75,0-1.12.6-1.12,1.74V68.8h3.13V71L75.68,71l0,7.2c0,.93,0,1.77-.11,2.52.62-.06,1.27-.09,2-.09V82.8H70.08Z" transform="translate(-0.67 -4.18)"/><path class="cls-1" d="M86.18,82.38a6.28,6.28,0,0,1-2.54-2.49,7.46,7.46,0,0,1-.93-3.78,8.39,8.39,0,0,1,1-4,7.11,7.11,0,0,1,2.57-2.75,6.69,6.69,0,0,1,3.54-1,7.41,7.41,0,0,1,3.61.87,6.34,6.34,0,0,1,2.52,2.51,7.58,7.58,0,0,1,.92,3.82,8.83,8.83,0,0,1-.88,4.06,6.54,6.54,0,0,1-2.46,2.69,7,7,0,0,1-3.63,1A7.68,7.68,0,0,1,86.18,82.38Zm5.88-2.55a9.05,9.05,0,0,0,.62-3.58,11.17,11.17,0,0,0-.7-4.17,2.35,2.35,0,0,0-4.45-.31,8.16,8.16,0,0,0-.7,3.58,10.43,10.43,0,0,0,.75,4.17,2.48,2.48,0,0,0,2.33,1.74A2.18,2.18,0,0,0,92.06,79.83Z" transform="translate(-0.67 -4.18)"/><path class="cls-1" d="M101.08,81a1.78,1.78,0,0,0,1.11-.29,1.35,1.35,0,0,0,.44-.8,7.31,7.31,0,0,0,.1-1.4V67c0-.9,0-1.71.11-2.44l-2,.09V62.5a13,13,0,0,0,2.86-.25,3.55,3.55,0,0,0,1.46-.59h1.51V78.29c0,.9,0,1.72-.11,2.47.61-.06,1.22-.09,1.82-.09V82.8h-7.34Z" transform="translate(-0.67 -4.18)"/><path class="cls-1" d="M113.06,81c.71,0,1.17-.2,1.36-.59a4.44,4.44,0,0,0,.29-1.9V73.84a23,23,0,0,1,.12-2.44l-2,.09V69.36a13,13,0,0,0,2.85-.25,3.49,3.49,0,0,0,1.46-.59h1.51v9.77c0,.9,0,1.72-.11,2.47a18.18,18.18,0,0,1,1.82-.09V82.8h-7.34Zm2.38-15.61a2.28,2.28,0,0,1-.61-1.61,2.32,2.32,0,0,1,.64-1.64,2,2,0,0,1,1.51-.68,1.92,1.92,0,0,1,1.5.67,2.4,2.4,0,0,1,.6,1.65,2.36,2.36,0,0,1-.57,1.62A1.91,1.91,0,0,1,117,66,2.06,2.06,0,0,1,115.44,65.37Z" transform="translate(-0.67 -4.18)"/><path class="cls-1" d="M128.21,82.38a6.36,6.36,0,0,1-2.55-2.49,7.56,7.56,0,0,1-.92-3.78,8.39,8.39,0,0,1,1-4,7.16,7.16,0,0,1,2.56-2.75,6.74,6.74,0,0,1,3.54-1,7.45,7.45,0,0,1,3.62.87,6.34,6.34,0,0,1,2.52,2.51,7.69,7.69,0,0,1,.92,3.82,8.83,8.83,0,0,1-.88,4.06,6.5,6.5,0,0,1-2.47,2.69,6.91,6.91,0,0,1-3.62,1A7.65,7.65,0,0,1,128.21,82.38Zm5.88-2.55a9.05,9.05,0,0,0,.62-3.58,11.37,11.37,0,0,0-.7-4.17,2.36,2.36,0,0,0-2.22-1.77,2.33,2.33,0,0,0-2.23,1.46,8.16,8.16,0,0,0-.71,3.58,10.42,10.42,0,0,0,.76,4.17,2.48,2.48,0,0,0,2.33,1.74A2.18,2.18,0,0,0,134.09,79.83Z" transform="translate(-0.67 -4.18)"/><path class="cls-1" d="M144.34,82.62a2.21,2.21,0,0,1-.59-1.56,2.17,2.17,0,0,1,.62-1.54,1.9,1.9,0,0,1,1.42-.64,1.87,1.87,0,0,1,1.45.64,2.42,2.42,0,0,1,0,3.1,1.8,1.8,0,0,1-1.44.63A1.94,1.94,0,0,1,144.34,82.62Z" transform="translate(-0.67 -4.18)"/><path class="cls-1" d="M103.32,94.22l4.24,8.52,4.2-8.52H114V106.8H112.4V96.46l-4.32,8.76H107l-4.38-8.9V106.8h-1.58V94.22Z" transform="translate(-0.67 -4.18)"/><path class="cls-1" d="M121.32,94.22v8a3.23,3.23,0,0,0,.88,2.54,3.84,3.84,0,0,0,4.64,0,3.23,3.23,0,0,0,.88-2.54v-8h1.58v8a4.6,4.6,0,0,1-1.3,3.56,5.66,5.66,0,0,1-7,0,4.63,4.63,0,0,1-1.29-3.56v-8Z" transform="translate(-0.67 -4.18)"/><path class="cls-1" d="M136.68,105.42h5.6v1.38H135.1V94.22h1.58Z" transform="translate(-0.67 -4.18)"/><path class="cls-1" d="M143.58,94.22h9.78v1.36h-4.1V106.8h-1.58V95.58h-4.1Z" transform="translate(-0.67 -4.18)"/><path class="cls-1" d="M157.5,94.22h1.58V106.8H157.5Z" transform="translate(-0.67 -4.18)"/><path class="cls-1" d="M167.36,94.22l4.24,8.52,4.2-8.52H178V106.8h-1.58V96.46l-4.32,8.76h-1.06l-4.38-8.9V106.8H165.1V94.22Z" transform="translate(-0.67 -4.18)"/><path class="cls-1" d="M184,94.22h7.74v1.36h-6.16V99.8h5.8v1.34h-5.8v4.28h6.16v1.38H184Z" transform="translate(-0.67 -4.18)"/><path class="cls-1" d="M201,94.22a6.29,6.29,0,1,1,0,12.58h-3.7V94.22Zm-2.12,11.2H201a4.25,4.25,0,0,0,3.34-1.39,5.09,5.09,0,0,0,1.24-3.53A5,5,0,0,0,204.31,97,4.29,4.29,0,0,0,201,95.62h-2.12Z" transform="translate(-0.67 -4.18)"/><path class="cls-1" d="M212.52,94.22h1.58V106.8h-1.58Z" transform="translate(-0.67 -4.18)"/><path class="cls-1" d="M222.94,94.22h1.92l4.22,12.58h-1.64l-1.08-3.2h-5l-1.08,3.2h-1.66Zm-1.16,8.14H226l-2.08-6.2Z" transform="translate(-0.67 -4.18)"/><path class="cls-1" d="M244.06,94.22a6.29,6.29,0,1,1,0,12.58h-3.7V94.22Zm-2.12,11.2h2.12A4.25,4.25,0,0,0,247.4,104a5.09,5.09,0,0,0,1.24-3.53A5,5,0,0,0,247.39,97a4.31,4.31,0,0,0-3.33-1.37h-2.12Z" transform="translate(-0.67 -4.18)"/><path class="cls-1" d="M255.58,94.22h7.74v1.36h-6.16V99.8H263v1.34h-5.8v4.28h6.16v1.38h-7.74Z" transform="translate(-0.67 -4.18)"/><path class="cls-1" d="M275.54,97.28c-.23-1.23-1.13-1.84-2.7-1.84a3,3,0,0,0-1.94.55,1.64,1.64,0,0,0-.68,1.32,1.55,1.55,0,0,0,.42,1.17,3.48,3.48,0,0,0,1.36.7l2.62.9a5.53,5.53,0,0,1,2.13,1.26,3.08,3.08,0,0,1,.79,2.25A3,3,0,0,1,276.3,106a5.19,5.19,0,0,1-3.32,1,5.32,5.32,0,0,1-3.41-1,3.62,3.62,0,0,1-1.37-3h1.54a2.24,2.24,0,0,0,.87,1.9,3.59,3.59,0,0,0,2.24.66A3.49,3.49,0,0,0,275,105a1.82,1.82,0,0,0,.31-2.75,3.73,3.73,0,0,0-1.45-.8l-2.22-.82a6.71,6.71,0,0,1-2.36-1.24,2.67,2.67,0,0,1-.8-2.11,2.88,2.88,0,0,1,1.12-2.32,5.79,5.79,0,0,1,6.23,0,3.47,3.47,0,0,1,1.23,2.39Z" transform="translate(-0.67 -4.18)"/><path class="cls-1" d="M282.94,94.22h1.58V106.8h-1.58Z" transform="translate(-0.67 -4.18)"/><path class="cls-1" d="M298.32,104.64a3.21,3.21,0,0,1-3.26,2.38,5,5,0,0,1-4-1.76,6.87,6.87,0,0,1-1.55-4.74,6.53,6.53,0,0,1,1.69-4.74A5.6,5.6,0,0,1,295.44,94a5.38,5.38,0,0,1,2.59.6,5.17,5.17,0,0,1,1.91,1.92l-1.52.52a3.82,3.82,0,0,0-3-1.62,3.72,3.72,0,0,0-2.95,1.42,5.49,5.49,0,0,0-1.21,3.69,5.88,5.88,0,0,0,1,3.65,3.31,3.31,0,0,0,2.8,1.38,3,3,0,0,0,2.32-1,4.11,4.11,0,0,0,.88-2.84v0l-3.16-.12v-1h4.7v6.22h-1.28Z" transform="translate(-0.67 -4.18)"/><path class="cls-1" d="M307.28,94.22l6.24,10.1V94.22h1.58V106.8h-1.76L307,96.56V106.8h-1.6V94.22Z" transform="translate(-0.67 -4.18)"/></g></g></g></svg>